<?xml version="1.0" standalone="no"?>
<!DOCTYPE svg PUBLIC "-//W3C//DTD SVG 1.1//EN" "http://www.w3.org/Graphics/SVG/1.1/DTD/svg11.dtd" >
<svg xmlns="http://www.w3.org/2000/svg" xmlns:xlink="http://www.w3.org/1999/xlink" version="1.1">
<metadata>
Created by FontForge 20190801 at Mon Dec 12 17:23:29 2011
 By Jimmy Wärting
Copyright (c) 2011 by atipo. All rights reserved.
</metadata>
<defs>
<font id="Cassannet-Bold" horiz-adv-x="550" >
  <font-face 
    font-family="Cassannet Bold"
    font-weight="700"
    font-stretch="normal"
    units-per-em="1000"
    panose-1="2 0 0 0 0 0 0 0 0 0"
    ascent="750"
    descent="-250"
    x-height="470"
    cap-height="700"
    bbox="-49 -244 1524 945"
    underline-thickness="50"
    underline-position="-100"
    unicode-range="U+0020-FB02"
  />
<missing-glyph horiz-adv-x="397" 
 />
    <glyph glyph-name="ellipsis" unicode="&#x2e;&#x2e;&#x2e;" horiz-adv-x="794" 
d="M42 73c0 47 37 87 85 87c46 0 85 -40 85 -87s-39 -86 -85 -86c-48 0 -85 39 -85 86zM582 73c0 47 37 87 85 87c46 0 85 -40 85 -87s-39 -86 -85 -86c-48 0 -85 39 -85 86zM312 73c0 47 37 87 85 87c46 0 85 -40 85 -87s-39 -86 -85 -86c-48 0 -85 39 -85 86z" />
    <glyph glyph-name="fi" unicode="fi" horiz-adv-x="621" 
d="M50 0v470h300v-128h-162v-50h149v-120h-149v-172h-138zM433 0v470h138v-470h-138z" />
    <glyph glyph-name="fl" unicode="fl" horiz-adv-x="771" 
d="M50 0v470h300v-128h-162v-50h149v-120h-149v-172h-138zM433 0v470h138v-342h171v-128h-309z" />
    <glyph glyph-name="F_I" unicode="FI" horiz-adv-x="717" 
d="M65 0v700h347v-146h-197v-115h184v-143h-184v-296h-150zM502 0v700h150v-700h-150z" />
    <glyph glyph-name="F_L" unicode="FL" horiz-adv-x="856" 
d="M502 0v700h150v-553h178v-147h-328zM65 0v700h347v-146h-197v-115h184v-143h-184v-296h-150z" />
    <glyph glyph-name="F_F" unicode="FF" horiz-adv-x="902" 
d="M65 0v700h347v-146h-197v-115h184v-143h-184v-296h-150zM502 0v700h347v-146h-197v-115h184v-143h-184v-296h-150z" />
    <glyph glyph-name=".notdef" horiz-adv-x="397" 
 />
    <glyph glyph-name="exclam" unicode="!" horiz-adv-x="312" 
d="M90 216v484h133v-484h-133zM71 73c0 47 37 87 85 87c46 0 85 -40 85 -87s-39 -86 -85 -86c-48 0 -85 39 -85 86z" />
    <glyph glyph-name="quotedbl" unicode="&#x22;" horiz-adv-x="365" 
d="M37 700h127l-23 -303h-81zM200 700h127l-23 -303h-81z" />
    <glyph glyph-name="numbersign" unicode="#" horiz-adv-x="568" 
d="M248 0l30 172h-59l-31 -172h-116l30 172h-67v120h89l17 98h-76v120h98l28 158h119l-29 -158h58l28 158h119l-29 -158h76v-120h-98l-18 -98h86v-120h-108l-31 -172h-116zM259 390l-18 -98h59l17 98h-58z" />
    <glyph glyph-name="dollar" unicode="$" horiz-adv-x="571" 
d="M237 -90v90h-178v147h178v134h-7c-115 0 -206 98 -206 212c0 113 91 207 206 207h7v90h102v-90h124v-143h-124v-132c115 -2 207 -97 207 -210c0 -115 -93 -214 -207 -215v-90h-102zM175 491c0 -36 27 -64 62 -66v132c-35 -2 -62 -31 -62 -66zM391 214c0 32 -22 57 -52 64
v-129c30 8 52 32 52 65z" />
    <glyph glyph-name="percent" unicode="%" horiz-adv-x="775" 
d="M125 544c0 -35 26 -64 63 -64c38 0 65 29 65 64s-27 65 -65 65c-37 0 -63 -30 -63 -65zM20 543c0 94 75 169 168 169s170 -75 170 -169c0 -90 -77 -166 -170 -166s-168 76 -168 166zM522 154c0 -35 27 -64 64 -64c38 0 65 29 65 64c0 36 -27 65 -65 65
c-37 0 -64 -29 -64 -65zM418 153c0 94 75 169 168 169c92 0 169 -75 169 -169c0 -90 -77 -166 -169 -166c-93 0 -168 76 -168 166zM539 712l92 -53l-394 -678l-94 51z" />
    <glyph glyph-name="ampersand" unicode="&#x26;" horiz-adv-x="569" 
d="M476 181h-160l-46 89h-31c-35 0 -64 -29 -64 -64s29 -64 64 -64h300v-142h-311c-111 0 -202 95 -202 207c0 100 75 185 173 199l-154 294h427v-130h-198z" />
    <glyph glyph-name="quotesingle" unicode="'" horiz-adv-x="201" 
d="M37 700h127l-23 -303h-81z" />
    <glyph glyph-name="parenleft" unicode="(" horiz-adv-x="320" 
d="M44 295c0 122 22 292 75 421h156c-63 -134 -87 -301 -87 -421c0 -119 24 -287 87 -421h-156c-53 130 -75 300 -75 421z" />
    <glyph glyph-name="parenright" unicode=")" horiz-adv-x="320" 
d="M276 295c0 -121 -22 -291 -75 -421h-156c63 134 87 302 87 421c0 120 -24 287 -87 421h156c53 -129 75 -299 75 -421z" />
    <glyph glyph-name="asterisk" unicode="*" horiz-adv-x="367" 
d="M160 700h69v-95l81 48l35 -59l-85 -50l85 -50l-35 -58l-81 50v-96h-69v97l-87 -49l-34 57l85 49l-84 50l31 57l89 -49v98z" />
    <glyph glyph-name="plus" unicode="+" horiz-adv-x="512" 
d="M191 518h130v-199h191v-125h-191v-194h-130v194h-191v125h191v199z" />
    <glyph glyph-name="comma" unicode="," horiz-adv-x="254" 
d="M18 -114l68 243h158l-141 -243h-85z" />
    <glyph glyph-name="hyphen" unicode="-" horiz-adv-x="371" 
d="M41 164v125h289v-125h-289z" />
    <glyph glyph-name="period" unicode="." horiz-adv-x="254" 
d="M42 73c0 47 37 87 85 87c46 0 85 -40 85 -87s-39 -86 -85 -86c-48 0 -85 39 -85 86z" />
    <glyph glyph-name="slash" unicode="/" horiz-adv-x="534" 
d="M393 756l118 -55l-370 -852l-118 54z" />
    <glyph glyph-name="zero" unicode="0" horiz-adv-x="613" 
d="M307 712c197 0 268 -193 268 -362c0 -168 -71 -362 -268 -362c-198 0 -269 194 -269 362c0 169 71 362 269 362zM307 120c94 0 123 112 123 230c0 119 -29 230 -123 230s-124 -111 -124 -230c0 -118 30 -230 124 -230z" />
    <glyph glyph-name="one" unicode="1" horiz-adv-x="334" 
d="M129 570h-90v130h230v-700h-140v570z" />
    <glyph glyph-name="two" unicode="2" horiz-adv-x="551" 
d="M52 500c0 115 103 212 226 212c124 0 226 -97 226 -212c0 -63 -23 -100 -62 -152l-164 -219h222v-129h-480l206 293c-99 23 -174 95 -174 207zM195 500c0 -46 36 -82 81 -82c46 0 83 36 83 82c0 45 -37 81 -83 81c-45 0 -81 -36 -81 -81z" />
    <glyph glyph-name="three" unicode="3" horiz-adv-x="519" 
d="M112 290l150 280h-194v130h423l-157 -297c90 -21 145 -98 145 -189c0 -124 -81 -226 -236 -226c-130 0 -221 92 -221 229h142c0 -58 38 -97 85 -97s85 38 85 85c0 43 -33 85 -98 85h-124z" />
    <glyph glyph-name="four" unicode="4" horiz-adv-x="597" 
d="M503 236h76v-130h-76v-106h-141v106h-347l488 607v-477zM362 236v117l-90 -117h90z" />
    <glyph glyph-name="five" unicode="5" horiz-adv-x="499" 
d="M453 570h-231l-7 -84c153 0 271 -112 271 -250s-108 -250 -264 -250c-95 0 -158 38 -213 92l83 97c42 -38 73 -58 130 -58c74 0 118 52 118 119c0 62 -56 119 -143 119c-47 0 -95 -22 -127 -55l40 400h343v-130z" />
    <glyph glyph-name="six" unicode="6" horiz-adv-x="515" 
d="M28 211c0 51 20 95 49 138l247 368l108 -81l-136 -204c109 -19 191 -110 191 -221c0 -121 -103 -223 -230 -223c-125 0 -229 102 -229 223zM342 212c0 52 -38 90 -84 90c-45 0 -85 -38 -85 -90c0 -53 40 -90 85 -90c46 0 84 37 84 90z" />
    <glyph glyph-name="seven" unicode="7" horiz-adv-x="565" 
d="M58 49l253 521h-276v130h499l-356 -717z" />
    <glyph glyph-name="eight" unicode="8" horiz-adv-x="514" 
d="M257 -12c-128 0 -225 98 -225 218c0 66 37 127 85 161c-38 36 -63 81 -63 138c0 114 84 207 203 207s203 -93 203 -207c0 -57 -25 -102 -63 -138c48 -34 85 -95 85 -161c0 -120 -97 -218 -225 -218zM257 280c-49 0 -80 -34 -80 -79c0 -44 36 -78 80 -78s80 34 80 78
c0 45 -31 79 -80 79zM257 577c-39 0 -70 -33 -70 -74c0 -42 31 -72 70 -72s70 30 70 72c0 41 -31 74 -70 74z" />
    <glyph glyph-name="nine" unicode="9" horiz-adv-x="515" 
d="M487 489c0 -51 -20 -95 -49 -138l-247 -368l-108 81l136 204c-109 19 -191 110 -191 221c0 121 103 223 230 223c125 0 229 -102 229 -223zM173 488c0 -52 38 -90 84 -90c45 0 85 38 85 90c0 53 -40 90 -85 90c-46 0 -84 -37 -84 -90z" />
    <glyph glyph-name="colon" unicode=":" horiz-adv-x="254" 
d="M42 73c0 47 37 87 85 87c46 0 85 -40 85 -87s-39 -86 -85 -86c-48 0 -85 39 -85 86zM42 387c0 47 37 87 85 87c46 0 85 -40 85 -87s-39 -86 -85 -86c-48 0 -85 39 -85 86z" />
    <glyph glyph-name="semicolon" unicode=";" horiz-adv-x="254" 
d="M77 387c0 47 37 87 85 87c46 0 85 -40 85 -87s-39 -86 -85 -86c-48 0 -85 39 -85 86zM18 -114l68 243h158l-141 -243h-85z" />
    <glyph glyph-name="equal" unicode="=" horiz-adv-x="512" 
d="M0 432h512v-125h-512v125zM0 242h512v-125h-512v125z" />
    <glyph glyph-name="question" unicode="?" horiz-adv-x="538" 
d="M347 203h-139c0 174 139 165 139 292c0 44 -28 79 -79 79c-39 0 -79 -27 -79 -90h-140c0 134 88 228 219 228c132 0 221 -95 221 -217c0 -151 -142 -166 -142 -292zM190 73c0 47 37 87 85 87c46 0 85 -40 85 -87s-39 -86 -85 -86c-48 0 -85 39 -85 86z" />
    <glyph glyph-name="at" unicode="@" horiz-adv-x="728" 
d="M422 401h131v85c-36 15 -75 23 -115 23c-171 0 -301 -141 -301 -307s135 -301 301 -301v-100c-211 0 -406 173 -406 401c0 222 177 407 406 407c78 0 159 -23 215 -61v-548h-231c-109 0 -198 93 -198 203c0 108 88 198 198 198zM553 100v205h-113
c-60 0 -108 -43 -108 -103c0 -59 48 -102 108 -102h113z" />
    <glyph glyph-name="A" unicode="A" horiz-adv-x="634" 
d="M418 131h-200l-56 -131h-159l314 713l314 -713h-159zM367 265l-50 121l-48 -121h98z" />
    <glyph glyph-name="B" unicode="B" horiz-adv-x="601" 
d="M541 498c0 -54 -34 -104 -62 -126c43 -28 81 -85 81 -156c0 -117 -96 -216 -216 -216h-279v700h274c112 0 202 -90 202 -202zM215 562v-130h108c36 0 65 29 65 65s-29 65 -65 65h-108zM215 138h113c44 0 80 36 80 80s-36 80 -80 80h-113v-160z" />
    <glyph glyph-name="C" unicode="C" horiz-adv-x="569" 
d="M526 190v-174c-48 -20 -91 -29 -142 -29c-199 0 -358 162 -358 362c0 201 159 363 358 363c51 0 94 -9 142 -29v-174c-34 33 -83 56 -142 56c-111 0 -201 -98 -201 -216s90 -215 201 -215c59 0 108 23 142 56z" />
    <glyph glyph-name="D" unicode="D" horiz-adv-x="685" 
d="M215 138h93c115 0 198 95 198 212s-83 212 -198 212h-93v-424zM65 0v700h254c189 0 340 -157 340 -350s-146 -350 -340 -350h-254z" />
    <glyph glyph-name="E" unicode="E" 
d="M65 0v700h432v-146h-282v-100h269v-144h-269v-163h287v-147h-437z" />
    <glyph glyph-name="F" unicode="F" 
d="M65 0v700h432v-146h-282v-115h269v-143h-269v-296h-150z" />
    <glyph glyph-name="G" unicode="G" horiz-adv-x="769" 
d="M572 270h-190v134h357s4 -22 4 -55c0 -200 -150 -362 -358 -362c-199 0 -359 162 -359 362c0 201 159 363 358 363c123 0 221 -58 287 -144l-123 -94c-37 54 -97 91 -164 91c-111 0 -201 -98 -201 -216s91 -215 202 -215c119 0 175 71 187 136z" />
    <glyph glyph-name="H" unicode="H" horiz-adv-x="626" 
d="M65 0v700h150v-277h196v277h150v-700h-150v285h-196v-285h-150z" />
    <glyph glyph-name="I" unicode="I" horiz-adv-x="280" 
d="M65 0v700h150v-700h-150z" />
    <glyph glyph-name="J" unicode="J" horiz-adv-x="500" 
d="M29 205h148c0 -48 24 -69 54 -69s54 24 54 54v510h150v-509c0 -114 -91 -204 -204 -204s-202 76 -202 218z" />
    <glyph glyph-name="K" unicode="K" horiz-adv-x="586" 
d="M65 0v700h150v-247l179 247h176l-241 -315l258 -385h-186l-165 259l-21 -26v-233h-150z" />
    <glyph glyph-name="L" unicode="L" horiz-adv-x="505" 
d="M65 0v700h150v-560h264v-140h-414z" />
    <glyph glyph-name="M" unicode="M" horiz-adv-x="803" 
d="M172 713l227 -417l227 417l142 -713h-153l-52 299l-164 -312l-164 312l-52 -299h-153z" />
    <glyph glyph-name="N" unicode="N" horiz-adv-x="681" 
d="M60 0v700h128l289 -310v310h144v-713l-417 466v-453h-144z" />
    <glyph glyph-name="O" unicode="O" horiz-adv-x="769" 
d="M26 349c0 201 159 363 358 363s359 -162 359 -363c0 -200 -159 -362 -358 -362s-359 162 -359 362zM183 349c0 -118 91 -215 202 -215c110 0 201 97 201 215s-92 216 -202 216c-111 0 -201 -98 -201 -216z" />
    <glyph glyph-name="P" unicode="P" horiz-adv-x="587" 
d="M561 458c0 -135 -106 -242 -240 -242h-106v-216h-150v700h256c134 0 240 -110 240 -242zM408 458c0 57 -44 104 -100 104h-93v-207h93c65 0 100 43 100 103z" />
    <glyph glyph-name="Q" unicode="Q" horiz-adv-x="769" 
d="M26 349c0 201 159 363 358 363s359 -162 359 -363c0 -176 -123 -322 -287 -355v-145h-142v145c-165 33 -288 179 -288 355zM183 349c0 -92 54 -170 131 -201v83h142v-83c75 31 130 109 130 201c0 118 -92 216 -202 216c-111 0 -201 -98 -201 -216z" />
    <glyph glyph-name="R" unicode="R" horiz-adv-x="627" 
d="M583 442c0 -94 -46 -145 -97 -185c80 -60 97 -130 97 -203v-54h-150v54c0 74 -50 135 -126 135h-92v-189h-150v700h259c143 0 259 -116 259 -258zM430 442c0 66 -54 120 -120 120h-95v-239h95c66 0 120 54 120 119z" />
    <glyph glyph-name="S" unicode="S" horiz-adv-x="571" 
d="M241 425h95c117 0 210 -96 210 -210c0 -116 -94 -215 -210 -215h-277v147h261c39 0 71 28 71 67s-32 67 -71 67h-90c-115 0 -206 98 -206 212c0 113 91 207 206 207h233v-143h-222c-37 0 -66 -29 -66 -66s29 -66 66 -66z" />
    <glyph glyph-name="T" unicode="T" horiz-adv-x="530" 
d="M190 0v554h-159v146h468v-146h-159v-554h-150z" />
    <glyph glyph-name="U" unicode="U" horiz-adv-x="623" 
d="M65 700h149v-468c0 -54 45 -99 100 -99s100 45 100 99v468h149v-468c0 -137 -111 -245 -250 -245s-248 108 -248 245v468z" />
    <glyph glyph-name="V" unicode="V" horiz-adv-x="630" 
d="M622 700l-307 -712l-307 712h159l148 -386l148 386h159z" />
    <glyph glyph-name="W" unicode="W" horiz-adv-x="814" 
d="M806 700l-306 -713l-92 180l-93 -180l-307 713h158l165 -395l15 28l-152 367h157l149 -364l148 364h158z" />
    <glyph glyph-name="X" unicode="X" horiz-adv-x="537" 
d="M374 0l-106 207l-106 -207h-163l192 374l-167 326h163l81 -160l81 160h163l-167 -326l192 -374h-163z" />
    <glyph glyph-name="Y" unicode="Y" horiz-adv-x="598" 
d="M174 700l125 -256l125 256h166l-216 -407v-293h-150v293l-216 407h166z" />
    <glyph glyph-name="Z" unicode="Z" horiz-adv-x="526" 
d="M489 0h-479l259 554h-209v146h446l-262 -553h245v-147z" />
    <glyph glyph-name="bracketleft" unicode="[" horiz-adv-x="312" 
d="M182 596v-603h80v-120h-222v843h222v-120h-80z" />
    <glyph glyph-name="backslash" unicode="\" horiz-adv-x="534" 
d="M23 700l118 55l370 -853l-118 -54z" />
    <glyph glyph-name="bracketright" unicode="]" horiz-adv-x="312" 
d="M130 -7v603h-80v120h222v-843h-222v120h80z" />
    <glyph glyph-name="underscore" unicode="_" horiz-adv-x="640" 
d="M620 -36v-100h-601v100h601z" />
    <glyph glyph-name="grave" unicode="`" horiz-adv-x="295" 
d="M164 657l96 -138h-92l-144 138h140z" />
    <glyph glyph-name="a" unicode="a" horiz-adv-x="454" 
d="M289 47h-124l-20 -47h-148l230 482l230 -482h-148zM255 143l-28 70l-28 -70h56z" />
    <glyph glyph-name="b" unicode="b" horiz-adv-x="453" 
d="M417 332c0 -35 -13 -61 -30 -81c27 -25 45 -60 45 -101c0 -82 -70 -150 -151 -150h-231v470h228c76 0 139 -59 139 -138zM186 342v-48h67c13 0 24 11 24 24s-11 24 -24 24h-67zM186 128h71c17 0 31 14 31 31s-14 31 -31 31h-71v-62z" />
    <glyph glyph-name="c" unicode="c" horiz-adv-x="393" 
d="M162 234c0 -60 46 -109 104 -109c41 0 75 18 97 45v-164c-39 -16 -70 -20 -97 -20c-135 0 -250 110 -250 248s115 247 250 247c27 0 58 -4 97 -20v-164c-22 27 -56 45 -97 45c-58 0 -104 -48 -104 -108z" />
    <glyph glyph-name="d" unicode="d" horiz-adv-x="510" 
d="M188 128h54c60 0 107 47 107 107s-47 107 -107 107h-54v-214zM50 0v470h216c127 0 229 -105 229 -235s-100 -235 -229 -235h-216z" />
    <glyph glyph-name="e" unicode="e" horiz-adv-x="382" 
d="M50 0v470h300v-128h-162v-40h149v-120h-149v-54h165v-128h-303z" />
    <glyph glyph-name="f" unicode="f" horiz-adv-x="383" 
d="M50 0v470h300v-128h-162v-50h149v-120h-149v-172h-138z" />
    <glyph glyph-name="g" unicode="g" horiz-adv-x="528" 
d="M465 383l-117 -85c-18 26 -48 44 -83 44c-58 0 -104 -51 -104 -110c0 -58 46 -108 104 -108c37 0 65 14 78 36h-78v110h244s4 -20 4 -38c0 -135 -113 -246 -248 -246s-250 110 -250 246c0 138 114 249 250 249c92 0 158 -40 200 -98z" />
    <glyph glyph-name="h" unicode="h" horiz-adv-x="486" 
d="M50 0v470h138v-171h110v171h138v-470h-138v173h-110v-173h-138z" />
    <glyph glyph-name="i" unicode="i" horiz-adv-x="238" 
d="M50 0v470h138v-470h-138z" />
    <glyph glyph-name="j" unicode="j" horiz-adv-x="409" 
d="M28 157h138c0 -25 12 -35 27 -35s27 12 27 27v321h139v-318c0 -92 -73 -165 -166 -165c-85 0 -165 64 -165 170z" />
    <glyph glyph-name="k" unicode="k" horiz-adv-x="461" 
d="M50 0v470h138v-125l85 125h163l-152 -205l179 -265h-172l-94 151l-9 -15v-136h-138z" />
    <glyph glyph-name="l" unicode="l" horiz-adv-x="388" 
d="M50 0v470h138v-342h171v-128h-309z" />
    <glyph glyph-name="m" unicode="m" horiz-adv-x="571" 
d="M379 151l-96 -164l-96 164l-29 -151h-133l104 481l154 -266l154 266l104 -481h-133z" />
    <glyph glyph-name="n" unicode="n" horiz-adv-x="484" 
d="M45 0v470h113l148 -159v159h133v-483l-261 273v-260h-133z" />
    <glyph glyph-name="o" unicode="o" horiz-adv-x="528" 
d="M265 -14c-135 0 -250 111 -250 246c0 138 115 249 250 249s248 -111 248 -249c0 -135 -113 -246 -248 -246zM265 342c-58 0 -104 -50 -104 -110c0 -58 46 -108 104 -108s102 50 102 108c0 60 -44 110 -102 110z" />
    <glyph glyph-name="p" unicode="p" horiz-adv-x="440" 
d="M425 305c0 -91 -72 -171 -164 -171h-73v-134h-138v470h211c92 0 164 -75 164 -165zM282 302c0 22 -18 40 -40 40h-54v-80h54c22 0 40 18 40 40z" />
    <glyph glyph-name="q" unicode="q" horiz-adv-x="541" 
d="M211 -108v102c-108 26 -190 123 -190 238c0 138 115 249 250 249s248 -111 248 -249c0 -115 -82 -213 -190 -239v-101h-118zM271 342c-58 0 -104 -50 -104 -110c0 -36 17 -68 44 -88v45h118v-46c27 19 44 52 44 89c0 60 -44 110 -102 110z" />
    <glyph glyph-name="r" unicode="r" horiz-adv-x="457" 
d="M219 112h-31v-112h-138v470h192c102 0 181 -79 181 -181c0 -58 -26 -100 -54 -120c43 -26 54 -60 54 -116v-53h-136v44c0 38 -30 68 -68 68zM280 289c0 30 -23 53 -53 53h-39v-106h39c30 0 53 23 53 53z" />
    <glyph glyph-name="s" unicode="s" horiz-adv-x="402" 
d="M181 306h49c86 0 153 -67 153 -153c0 -80 -73 -153 -153 -153h-179v128h172c13 0 24 11 24 24s-11 24 -24 24h-48c-82 0 -147 65 -147 147s65 147 147 147h155v-128h-149c-10 0 -18 -8 -18 -18s8 -18 18 -18z" />
    <glyph glyph-name="t" unicode="t" horiz-adv-x="386" 
d="M125 0v337h-101v133h340v-133h-101v-337h-138z" />
    <glyph glyph-name="u" unicode="u" horiz-adv-x="440" 
d="M220 -14c-97 0 -175 79 -175 176v308h138v-312c0 -20 17 -37 37 -37s37 17 37 37v312h138v-308c0 -97 -77 -176 -175 -176z" />
    <glyph glyph-name="v" unicode="v" horiz-adv-x="446" 
d="M147 470l76 -190l76 190h144l-220 -483l-220 483h144z" />
    <glyph glyph-name="w" unicode="w" horiz-adv-x="597" 
d="M374 267l75 203h145l-219 -484l-69 157l-72 -156l-231 483h140l96 -209l8 19l-84 190h135z" />
    <glyph glyph-name="x" unicode="x" horiz-adv-x="432" 
d="M279 0l-63 134l-63 -134h-151l129 250l-113 220h151l47 -102l47 102h151l-113 -220l129 -250h-151z" />
    <glyph glyph-name="y" unicode="y" horiz-adv-x="458" 
d="M298 0h-138v195l-157 275h158l68 -143l68 143h158l-157 -275v-195z" />
    <glyph glyph-name="z" unicode="z" horiz-adv-x="433" 
d="M401 0h-382l172 342h-147v128h369l-172 -342h160v-128z" />
    <glyph glyph-name="braceleft" unicode="{" horiz-adv-x="311" 
d="M226 414c0 -65 -23 -103 -70 -120c47 -17 70 -55 70 -120v-157c0 -11 9 -20 20 -20h43v-125h-105c-57 0 -102 45 -102 102v195c0 47 -14 66 -67 66v119c53 0 67 18 67 65v194c0 58 45 103 102 103h105v-125h-43c-11 0 -20 -9 -20 -20v-157z" />
    <glyph glyph-name="bar" unicode="|" horiz-adv-x="301" 
d="M79 -198v948h142v-948h-142z" />
    <glyph glyph-name="braceright" unicode="}" horiz-adv-x="311" 
d="M85 414v157c0 11 -9 20 -20 20h-43v125h105c57 0 102 -45 102 -103v-194c0 -47 14 -65 67 -65v-119c-53 0 -67 -19 -67 -66v-195c0 -57 -45 -102 -102 -102h-105v125h43c11 0 20 9 20 20v157c0 65 23 103 70 120c-47 17 -70 55 -70 120z" />
    <glyph glyph-name="Adieresis" unicode="&#xc4;" horiz-adv-x="634" 
d="M418 131h-200l-56 -131h-159l314 713l314 -713h-159zM367 265l-50 121l-48 -121h98zM153 804c0 38 30 70 69 70c37 0 69 -32 69 -70c0 -39 -32 -70 -69 -70c-39 0 -69 31 -69 70zM344 804c0 38 30 70 69 70c37 0 69 -32 69 -70c0 -39 -32 -70 -69 -70
c-39 0 -69 31 -69 70z" />
    <glyph glyph-name="Aring" unicode="&#xc5;" horiz-adv-x="634" 
d="M418 131h-200l-56 -131h-159l314 713l314 -713h-159zM367 265l-50 121l-48 -121h98zM317 719c-64 0 -115 50 -115 113s51 113 115 113s115 -50 115 -113s-51 -113 -115 -113zM317 782c31 0 48 26 48 50s-17 50 -48 50s-48 -26 -48 -50s17 -50 48 -50z" />
    <glyph glyph-name="Ccedilla" unicode="&#xc7;" horiz-adv-x="569" 
d="M526 190v-174c-48 -20 -91 -29 -142 -29c-30 0 -59 4 -87 11l-86 -127l-94 65l74 107c-99 64 -165 177 -165 306c0 201 159 363 358 363c51 0 94 -9 142 -29v-174c-34 33 -83 56 -142 56c-111 0 -201 -98 -201 -216c0 -77 37 -144 94 -182l46 67l93 -64l-25 -36
c56 2 102 24 135 56z" />
    <glyph glyph-name="Eacute" unicode="&#xc9;" 
d="M65 0v700h432v-146h-282v-100h269v-144h-269v-163h287v-147h-437zM191 742l96 138h140l-144 -138h-92z" />
    <glyph glyph-name="Ntilde" unicode="&#xd1;" horiz-adv-x="681" 
d="M60 0v700h128l289 -310v310h144v-713l-417 466v-453h-144zM386 751c-41 0 -63 18 -93 18c-15 0 -29 -7 -42 -28l-79 49c28 58 71 77 111 77c28 0 63 -18 93 -18c15 0 29 7 42 28l79 -49c-28 -58 -71 -77 -111 -77z" />
    <glyph glyph-name="Odieresis" unicode="&#xd6;" horiz-adv-x="769" 
d="M26 349c0 201 159 363 358 363s359 -162 359 -363c0 -200 -159 -362 -358 -362s-359 162 -359 362zM183 349c0 -118 91 -215 202 -215c110 0 201 97 201 215s-92 216 -202 216c-111 0 -201 -98 -201 -216zM223 804c0 38 30 70 69 70c37 0 69 -32 69 -70
c0 -39 -32 -70 -69 -70c-39 0 -69 31 -69 70zM414 804c0 38 30 70 69 70c37 0 69 -32 69 -70c0 -39 -32 -70 -69 -70c-39 0 -69 31 -69 70z" />
    <glyph glyph-name="Udieresis" unicode="&#xdc;" horiz-adv-x="623" 
d="M65 700h149v-468c0 -54 45 -99 100 -99s100 45 100 99v468h149v-468c0 -137 -111 -245 -250 -245s-248 108 -248 245v468zM153 804c0 38 30 70 69 70c37 0 69 -32 69 -70c0 -39 -32 -70 -69 -70c-39 0 -69 31 -69 70zM344 804c0 38 30 70 69 70c37 0 69 -32 69 -70
c0 -39 -32 -70 -69 -70c-39 0 -69 31 -69 70z" />
    <glyph glyph-name="aacute" unicode="&#xe1;" horiz-adv-x="454" 
d="M151 519l96 138h140l-144 -138h-92zM289 47h-124l-20 -47h-148l230 482l230 -482h-148zM255 143l-28 70l-28 -70h56z" />
    <glyph glyph-name="agrave" unicode="&#xe0;" horiz-adv-x="454" 
d="M289 47h-124l-20 -47h-148l230 482l230 -482h-148zM255 143l-28 70l-28 -70h56zM198 657l96 -138h-92l-144 138h140z" />
    <glyph glyph-name="acircumflex" unicode="&#xe2;" horiz-adv-x="454" 
d="M289 47h-124l-20 -47h-148l230 482l230 -482h-148zM255 143l-28 70l-28 -70h56zM344 494l-116 67l-116 -67v100l116 69l116 -69v-100z" />
    <glyph glyph-name="adieresis" unicode="&#xe4;" horiz-adv-x="454" 
d="M289 47h-124l-20 -47h-148l230 482l230 -482h-148zM255 143l-28 70l-28 -70h56zM63 576c0 38 30 70 69 70c37 0 69 -32 69 -70c0 -39 -32 -70 -69 -70c-39 0 -69 31 -69 70zM254 576c0 38 30 70 69 70c37 0 69 -32 69 -70c0 -39 -32 -70 -69 -70c-39 0 -69 31 -69 70z
" />
    <glyph glyph-name="atilde" unicode="&#xe3;" horiz-adv-x="454" 
d="M289 47h-124l-20 -47h-148l230 482l230 -482h-148zM255 143l-28 70l-28 -70h56zM279 539c-41 0 -63 18 -93 18c-15 0 -29 -7 -42 -28l-79 49c28 58 71 77 111 77c28 0 63 -18 93 -18c15 0 29 7 42 28l79 -49c-28 -58 -71 -77 -111 -77z" />
    <glyph glyph-name="aring" unicode="&#xe5;" horiz-adv-x="454" 
d="M227 491c-64 0 -115 50 -115 113s51 113 115 113s115 -50 115 -113s-51 -113 -115 -113zM227 554c31 0 48 26 48 50s-17 50 -48 50s-48 -26 -48 -50s17 -50 48 -50zM289 47h-124l-20 -47h-148l230 482l230 -482h-148zM255 143l-28 70l-28 -70h56z" />
    <glyph glyph-name="ccedilla" unicode="&#xe7;" horiz-adv-x="393" 
d="M162 234c0 -25 7 -47 20 -65l30 43l91 -63l-14 -22c31 5 56 21 74 43v-164c-39 -16 -70 -20 -97 -20c-22 0 -43 3 -63 8l-62 -98l-98 69l57 84c-51 45 -84 111 -84 185c0 138 115 247 250 247c27 0 58 -4 97 -20v-164c-22 27 -56 45 -97 45c-58 0 -104 -48 -104 -108z
" />
    <glyph glyph-name="eacute" unicode="&#xe9;" horiz-adv-x="382" 
d="M50 0v470h300v-128h-162v-40h149v-120h-149v-54h165v-128h-303zM117 519l96 138h140l-144 -138h-92z" />
    <glyph glyph-name="egrave" unicode="&#xe8;" horiz-adv-x="382" 
d="M50 0v470h300v-128h-162v-40h149v-120h-149v-54h165v-128h-303zM201 657l96 -138h-92l-144 138h140z" />
    <glyph glyph-name="ecircumflex" unicode="&#xea;" horiz-adv-x="382" 
d="M50 0v470h300v-128h-162v-40h149v-120h-149v-54h165v-128h-303zM316 494l-116 67l-116 -67v100l116 69l116 -69v-100z" />
    <glyph glyph-name="edieresis" unicode="&#xeb;" horiz-adv-x="382" 
d="M50 0v470h300v-128h-162v-40h149v-120h-149v-54h165v-128h-303zM34 576c0 38 30 70 69 70c37 0 69 -32 69 -70c0 -39 -32 -70 -69 -70c-39 0 -69 31 -69 70zM225 576c0 38 30 70 69 70c37 0 69 -32 69 -70c0 -39 -32 -70 -69 -70c-39 0 -69 31 -69 70z" />
    <glyph glyph-name="iacute" unicode="&#xed;" horiz-adv-x="238" 
d="M50 0v470h138v-470h-138zM48 519l96 138h140l-144 -138h-92z" />
    <glyph glyph-name="igrave" unicode="&#xec;" horiz-adv-x="238" 
d="M50 0v470h138v-470h-138zM91 657l96 -138h-92l-144 138h140z" />
    <glyph glyph-name="icircumflex" unicode="&#xee;" horiz-adv-x="238" 
d="M50 0v470h138v-470h-138zM235 494l-116 67l-116 -67v100l116 69l116 -69v-100z" />
    <glyph glyph-name="idieresis" unicode="&#xef;" horiz-adv-x="238" 
d="M50 0v470h138v-470h-138zM-42 576c0 38 30 70 69 70c37 0 69 -32 69 -70c0 -39 -32 -70 -69 -70c-39 0 -69 31 -69 70zM149 576c0 38 30 70 69 70c37 0 69 -32 69 -70c0 -39 -32 -70 -69 -70c-39 0 -69 31 -69 70z" />
    <glyph glyph-name="ntilde" unicode="&#xf1;" horiz-adv-x="484" 
d="M45 0v470h113l148 -159v159h133v-483l-261 273v-260h-133zM297 539c-41 0 -63 18 -93 18c-15 0 -29 -7 -42 -28l-79 49c28 58 71 77 111 77c28 0 63 -18 93 -18c15 0 29 7 42 28l79 -49c-28 -58 -71 -77 -111 -77z" />
    <glyph glyph-name="oacute" unicode="&#xf3;" horiz-adv-x="528" 
d="M265 -14c-135 0 -250 111 -250 246c0 138 115 249 250 249s248 -111 248 -249c0 -135 -113 -246 -248 -246zM265 342c-58 0 -104 -50 -104 -110c0 -58 46 -108 104 -108s102 50 102 108c0 60 -44 110 -102 110zM185 519l96 138h140l-144 -138h-92z" />
    <glyph glyph-name="ograve" unicode="&#xf2;" horiz-adv-x="528" 
d="M265 -14c-135 0 -250 111 -250 246c0 138 115 249 250 249s248 -111 248 -249c0 -135 -113 -246 -248 -246zM265 342c-58 0 -104 -50 -104 -110c0 -58 46 -108 104 -108s102 50 102 108c0 60 -44 110 -102 110zM242 657l96 -138h-92l-144 138h140z" />
    <glyph glyph-name="ocircumflex" unicode="&#xf4;" horiz-adv-x="528" 
d="M265 -14c-135 0 -250 111 -250 246c0 138 115 249 250 249s248 -111 248 -249c0 -135 -113 -246 -248 -246zM265 342c-58 0 -104 -50 -104 -110c0 -58 46 -108 104 -108s102 50 102 108c0 60 -44 110 -102 110zM383 494l-116 67l-116 -67v100l116 69l116 -69v-100z" />
    <glyph glyph-name="odieresis" unicode="&#xf6;" horiz-adv-x="528" 
d="M265 -14c-135 0 -250 111 -250 246c0 138 115 249 250 249s248 -111 248 -249c0 -135 -113 -246 -248 -246zM265 342c-58 0 -104 -50 -104 -110c0 -58 46 -108 104 -108s102 50 102 108c0 60 -44 110 -102 110zM100 576c0 38 30 70 69 70c37 0 69 -32 69 -70
c0 -39 -32 -70 -69 -70c-39 0 -69 31 -69 70zM291 576c0 38 30 70 69 70c37 0 69 -32 69 -70c0 -39 -32 -70 -69 -70c-39 0 -69 31 -69 70z" />
    <glyph glyph-name="otilde" unicode="&#xf5;" horiz-adv-x="528" 
d="M265 -14c-135 0 -250 111 -250 246c0 138 115 249 250 249s248 -111 248 -249c0 -135 -113 -246 -248 -246zM265 342c-58 0 -104 -50 -104 -110c0 -58 46 -108 104 -108s102 50 102 108c0 60 -44 110 -102 110zM316 539c-41 0 -63 18 -93 18c-15 0 -29 -7 -42 -28l-79 49
c28 58 71 77 111 77c28 0 63 -18 93 -18c15 0 29 7 42 28l79 -49c-28 -58 -71 -77 -111 -77z" />
    <glyph glyph-name="uacute" unicode="&#xfa;" horiz-adv-x="440" 
d="M220 -14c-97 0 -175 79 -175 176v308h138v-312c0 -20 17 -37 37 -37s37 17 37 37v312h138v-308c0 -97 -77 -176 -175 -176zM139 519l96 138h140l-144 -138h-92z" />
    <glyph glyph-name="ugrave" unicode="&#xf9;" horiz-adv-x="440" 
d="M220 -14c-97 0 -175 79 -175 176v308h138v-312c0 -20 17 -37 37 -37s37 17 37 37v312h138v-308c0 -97 -77 -176 -175 -176zM204 657l96 -138h-92l-144 138h140z" />
    <glyph glyph-name="ucircumflex" unicode="&#xfb;" horiz-adv-x="440" 
d="M220 -14c-97 0 -175 79 -175 176v308h138v-312c0 -20 17 -37 37 -37s37 17 37 37v312h138v-308c0 -97 -77 -176 -175 -176zM337 494l-116 67l-116 -67v100l116 69l116 -69v-100z" />
    <glyph glyph-name="udieresis" unicode="&#xfc;" horiz-adv-x="440" 
d="M220 -14c-97 0 -175 79 -175 176v308h138v-312c0 -20 17 -37 37 -37s37 17 37 37v312h138v-308c0 -97 -77 -176 -175 -176zM58 576c0 38 30 70 69 70c37 0 69 -32 69 -70c0 -39 -32 -70 -69 -70c-39 0 -69 31 -69 70zM249 576c0 38 30 70 69 70c37 0 69 -32 69 -70
c0 -39 -32 -70 -69 -70c-39 0 -69 31 -69 70z" />
    <glyph glyph-name="dagger" unicode="&#x2020;" horiz-adv-x="440" 
d="M20 470h130v230h140v-230h131v-132h-131v-516h-140v516h-130v132z" />
    <glyph glyph-name="degree" unicode="&#xb0;" horiz-adv-x="336" 
d="M168 442c-75 0 -134 60 -134 135s59 135 134 135s134 -60 134 -135s-59 -135 -134 -135zM168 524c30 0 52 23 52 53c0 31 -23 53 -52 53s-52 -22 -52 -53c0 -30 22 -53 52 -53z" />
    <glyph glyph-name="cent" unicode="&#xa2;" horiz-adv-x="393" 
d="M205 -124v118c-107 26 -189 123 -189 240c0 116 82 212 189 239v110h95v-104c18 -3 39 -9 63 -18v-164c-22 27 -56 45 -97 45c-58 0 -104 -48 -104 -108s46 -109 104 -109c41 0 75 18 97 45v-164c-24 -9 -45 -15 -63 -18v-112h-95z" />
    <glyph glyph-name="sterling" unicode="&#xa3;" horiz-adv-x="574" 
d="M489 519h-133c-3 26 -28 54 -63 54s-64 -29 -64 -64v-101h165v-126h-165v-140h117c26 0 47 21 47 47c0 13 -4 27 -17 45h144c7 -14 14 -36 14 -56c0 -103 -75 -178 -201 -178h-293v142h49v140h-33v126h33v102c0 112 93 202 205 202c129 0 192 -89 195 -193z" />
    <glyph glyph-name="section" unicode="&#xa7;" horiz-adv-x="579" 
d="M245 444h95c117 0 210 -96 210 -210c0 -50 -18 -98 -47 -135c29 -32 47 -75 47 -124c0 -116 -94 -215 -210 -215h-277v147h276c32 0 56 26 56 56s-19 56 -63 56h-98c-115 0 -206 101 -206 215c0 52 19 101 51 138c-32 38 -51 87 -51 140c0 113 91 207 206 207h233v-143
h-222c-36 0 -66 -30 -66 -66s30 -66 66 -66zM327 301h-81c-37 0 -67 -30 -67 -68c0 -37 30 -67 67 -67h81c38 0 68 30 68 67c0 38 -30 68 -68 68z" />
    <glyph glyph-name="bullet" unicode="&#x2022;" horiz-adv-x="386" 
d="M50 256c0 79 64 143 143 143s143 -64 143 -143s-64 -143 -143 -143s-143 64 -143 143z" />
    <glyph glyph-name="paragraph" unicode="&#xb6;" horiz-adv-x="592" 
d="M226 -127v375c-113 11 -200 109 -200 225c0 124 103 227 227 227h296v-125h-52v-702h-118v747h-35v-747h-118z" />
    <glyph glyph-name="registered" unicode="&#xae;" horiz-adv-x="336" 
d="M168 436c-76 0 -137 61 -137 138s61 138 137 138s137 -61 137 -138s-61 -138 -137 -138zM168 687c-62 0 -109 -49 -109 -113s47 -113 109 -113s109 49 109 113s-47 113 -109 113zM204 552c20 -11 27 -31 27 -50v-7h-26v7c0 17 -13 40 -36 40h-28v-47h-26v160h56
c34 0 60 -24 60 -57c0 -23 -14 -39 -27 -46zM205 598c0 19 -14 35 -33 35h-31v-70h31c19 0 33 17 33 35z" />
    <glyph glyph-name="copyright" unicode="&#xa9;" horiz-adv-x="780" 
d="M313 353c0 -51 40 -93 89 -93c36 0 65 16 83 39v-140c-33 -14 -60 -18 -83 -18c-116 0 -214 95 -214 212c0 118 98 212 214 212c23 0 50 -4 83 -18v-140c-18 23 -47 39 -83 39c-49 0 -89 -41 -89 -93zM390 -13c-200 0 -359 160 -359 362c0 203 159 363 359 363
s359 -160 359 -363c0 -202 -159 -362 -359 -362zM390 624c-149 0 -267 -120 -267 -275c0 -154 118 -274 267 -274s267 120 267 274c0 155 -118 275 -267 275z" />
    <glyph glyph-name="trademark" unicode="&#x2122;" horiz-adv-x="514" 
d="M93 458v205h-60v38h162v-38h-59v-205h-43zM346 537l88 168l46 -247h-41l-23 134l-70 -138l-70 138l-23 -134h-41l46 247z" />
    <glyph glyph-name="acute" unicode="&#xb4;" horiz-adv-x="295" 
d="M35 519l96 138h140l-144 -138h-92z" />
    <glyph glyph-name="dieresis" unicode="&#xa8;" horiz-adv-x="453" 
d="M66 576c0 38 30 70 69 70c37 0 69 -32 69 -70c0 -39 -32 -70 -69 -70c-39 0 -69 31 -69 70zM257 576c0 38 30 70 69 70c37 0 69 -32 69 -70c0 -39 -32 -70 -69 -70c-39 0 -69 31 -69 70z" />
    <glyph glyph-name="notequal" unicode="&#x2260;" horiz-adv-x="512" 
d="M512 117h-351l-82 -82l-62 62l20 20h-37v125h161l65 65h-226v125h351l82 82l62 -62l-20 -20h37v-125h-162l-65 -65h227v-125z" />
    <glyph glyph-name="AE" unicode="&#xc6;" horiz-adv-x="784" 
d="M416 131h-200l-56 -131h-159l312 700h431v-146h-365l45 -100h307v-144h-242l73 -163h187v-147h-279zM365 265l-50 121l-48 -121h98z" />
    <glyph glyph-name="Oslash" unicode="&#xd8;" horiz-adv-x="769" 
d="M26 349c0 201 159 363 358 363c83 0 159 -29 219 -76l75 75l76 -74l-78 -77c42 -60 67 -132 67 -211c0 -200 -159 -362 -358 -362c-80 0 -154 26 -213 70l-81 -80l-76 75l81 81c-44 60 -70 135 -70 216zM183 349c0 -38 9 -74 25 -105l287 285c-32 23 -71 36 -111 36
c-111 0 -201 -98 -201 -216zM586 349c0 35 -9 68 -23 98l-283 -282c31 -20 67 -31 105 -31c110 0 201 97 201 215z" />
    <glyph glyph-name="yen" unicode="&#xa5;" horiz-adv-x="598" 
d="M43 237h181v22h-181v112h139l-174 329h166l125 -256l125 256h166l-175 -329h140v-112h-181v-22h181v-112h-181v-125h-150v125h-181v112z" />
    <glyph glyph-name="ordfeminine" unicode="&#xaa;" horiz-adv-x="284" 
d="M185 468h-85l-16 -35h-75l133 280l133 -280h-75zM165 523l-23 57l-23 -57h46z" />
    <glyph glyph-name="ordmasculine" unicode="&#xba;" horiz-adv-x="322" 
d="M161 511c34 0 57 26 57 59c0 34 -23 60 -57 60s-57 -26 -57 -60c0 -33 23 -59 57 -59zM161 713c80 0 142 -64 142 -143c0 -78 -62 -142 -142 -142s-142 64 -142 142c0 79 62 143 142 143z" />
    <glyph glyph-name="ae" unicode="&#xe6;" horiz-adv-x="537" 
d="M-3 0l230 470h278v-128h-216l20 -40h183v-120h-124l26 -54h114v-128h-199l-20 47h-124l-20 -47h-148zM255 143l-28 70l-28 -70h56z" />
    <glyph glyph-name="oslash" unicode="&#xf8;" horiz-adv-x="528" 
d="M265 -14c-49 0 -95 14 -134 39l-56 -60l-63 62l54 57c-32 41 -51 93 -51 148c0 138 115 249 250 249c50 0 97 -16 136 -42l52 55l63 -62l-51 -54c30 -41 48 -92 48 -146c0 -135 -113 -246 -248 -246zM265 342c-58 0 -104 -50 -104 -110c0 -14 2 -27 7 -40l134 142
c-11 5 -24 8 -37 8zM367 232c0 12 -2 25 -6 36l-131 -138c11 -4 23 -6 35 -6c58 0 102 50 102 108z" />
    <glyph glyph-name="questiondown" unicode="&#xbf;" horiz-adv-x="538" 
d="M191 265h139c0 -174 -139 -165 -139 -292c0 -44 28 -79 79 -79c39 0 79 27 79 90h140c0 -134 -88 -228 -219 -228c-132 0 -221 95 -221 217c0 151 142 166 142 292zM348 395c0 -47 -37 -87 -85 -87c-46 0 -85 40 -85 87s39 86 85 86c48 0 85 -39 85 -86z" />
    <glyph glyph-name="exclamdown" unicode="&#xa1;" horiz-adv-x="312" 
d="M86 -232v484h133v-484h-133zM67 395c0 47 37 86 85 86c46 0 85 -39 85 -86s-39 -87 -85 -87c-48 0 -85 40 -85 87z" />
    <glyph glyph-name="florin" unicode="&#x192;" horiz-adv-x="400" 
d="M374 700v-133h-74c-49 0 -75 -34 -75 -75v-48h116v-120h-116v-400h-140v400h-65v120h65v51c0 117 91 205 211 205h78z" />
    <glyph glyph-name="guillemotleft" unicode="&#xab;" horiz-adv-x="512" 
d="M183 44l-155 207l155 207h126l-153 -207l153 -207h-126zM358 44l-155 207l155 207h126l-153 -207l153 -207h-126z" />
    <glyph glyph-name="guillemotright" unicode="&#xbb;" horiz-adv-x="512" 
d="M484 251l-155 -207h-126l153 207l-153 207h126zM309 251l-155 -207h-126l153 207l-153 207h126z" />
    <glyph glyph-name="Agrave" unicode="&#xc0;" horiz-adv-x="634" 
d="M418 131h-200l-56 -131h-159l314 713l314 -713h-159zM367 265l-50 121l-48 -121h98zM293 880l96 -138h-92l-144 138h140z" />
    <glyph glyph-name="Atilde" unicode="&#xc3;" horiz-adv-x="634" 
d="M418 131h-200l-56 -131h-159l314 713l314 -713h-159zM367 265l-50 121l-48 -121h98zM369 751c-41 0 -63 18 -93 18c-15 0 -29 -7 -42 -28l-79 49c28 58 71 77 111 77c28 0 63 -18 93 -18c15 0 29 7 42 28l79 -49c-28 -58 -71 -77 -111 -77z" />
    <glyph glyph-name="Otilde" unicode="&#xd5;" horiz-adv-x="769" 
d="M26 349c0 201 159 363 358 363s359 -162 359 -363c0 -200 -159 -362 -358 -362s-359 162 -359 362zM183 349c0 -118 91 -215 202 -215c110 0 201 97 201 215s-92 216 -202 216c-111 0 -201 -98 -201 -216zM434 751c-41 0 -63 18 -93 18c-15 0 -29 -7 -42 -28l-79 49
c28 58 71 77 111 77c28 0 63 -18 93 -18c15 0 29 7 42 28l79 -49c-28 -58 -71 -77 -111 -77z" />
    <glyph glyph-name="OE" unicode="&#x152;" horiz-adv-x="997" 
d="M26 349c0 201 159 363 358 363c32 0 62 -4 90 -12h470v-146h-264c20 -30 36 -63 47 -100h204v-144h-191c-6 -59 -26 -116 -58 -163h267v-147h-472c-30 -7 -62 -13 -92 -13c-199 0 -359 162 -359 362zM183 349c0 -118 91 -215 202 -215c110 0 201 97 201 215
s-92 216 -202 216c-111 0 -201 -98 -201 -216z" />
    <glyph glyph-name="oe" unicode="&#x153;" horiz-adv-x="697" 
d="M265 -14c-135 0 -250 111 -250 246c0 138 115 249 250 249c25 0 50 -4 73 -11h327v-128h-178c7 -13 12 -26 16 -40h149v-120h-144c-4 -19 -11 -37 -19 -54h179v-128h-322c-25 -9 -53 -14 -81 -14zM265 342c-58 0 -104 -50 -104 -110c0 -58 46 -108 104 -108
s102 50 102 108c0 60 -44 110 -102 110z" />
    <glyph glyph-name="endash" unicode="&#x2013;" horiz-adv-x="640" 
d="M565 280v-100h-490v100h490z" />
    <glyph glyph-name="emdash" unicode="&#x2014;" horiz-adv-x="1131" 
d="M1055 280v-100h-980v100h980z" />
    <glyph glyph-name="quotedblleft" unicode="&#x201c;" horiz-adv-x="454" 
d="M176 700l68 -243h-85l-141 243h158zM368 700l68 -243h-85l-141 243h158z" />
    <glyph glyph-name="quotedblright" unicode="&#x201d;" horiz-adv-x="454" 
d="M210 457l68 243h158l-141 -243h-85zM18 457l68 243h158l-141 -243h-85z" />
    <glyph glyph-name="quoteleft" unicode="&#x2018;" horiz-adv-x="262" 
d="M176 700l68 -243h-85l-141 243h158z" />
    <glyph glyph-name="quoteright" unicode="&#x2019;" horiz-adv-x="263" 
d="M18 457l68 243h158l-141 -243h-85z" />
    <glyph glyph-name="divide" unicode="&#xf7;" horiz-adv-x="512" 
d="M0 319h512v-125h-512v125zM185 423c0 39 32 72 72 72s72 -33 72 -72c0 -40 -32 -72 -72 -72s-72 32 -72 72zM185 95c0 39 32 72 72 72s72 -33 72 -72c0 -40 -32 -72 -72 -72s-72 32 -72 72z" />
    <glyph glyph-name="ydieresis" unicode="&#xff;" horiz-adv-x="458" 
d="M298 0h-138v195l-157 275h158l68 -143l68 143h158l-157 -275v-195zM65 576c0 38 30 70 69 70c37 0 69 -32 69 -70c0 -39 -32 -70 -69 -70c-39 0 -69 31 -69 70zM256 576c0 38 30 70 69 70c37 0 69 -32 69 -70c0 -39 -32 -70 -69 -70c-39 0 -69 31 -69 70z" />
    <glyph glyph-name="Ydieresis" unicode="&#x178;" horiz-adv-x="598" 
d="M174 700l125 -256l125 256h166l-216 -407v-293h-150v293l-216 407h166zM135 804c0 38 30 70 69 70c37 0 69 -32 69 -70c0 -39 -32 -70 -69 -70c-39 0 -69 31 -69 70zM326 804c0 38 30 70 69 70c37 0 69 -32 69 -70c0 -39 -32 -70 -69 -70c-39 0 -69 31 -69 70z" />
    <glyph glyph-name="fraction" unicode="&#x2044;" horiz-adv-x="314" 
d="M237 793l124 -45l-282 -840l-125 45z" />
    <glyph glyph-name="Euro" unicode="&#x20ac;" horiz-adv-x="569" 
d="M-15 462h58c47 145 181 250 341 250c51 0 94 -9 142 -29v-174c-34 33 -83 56 -142 56c-72 0 -136 -42 -171 -103h186v-112h-216v-1c0 -7 0 -14 1 -21h215v-112h-173c37 -50 94 -82 158 -82c59 0 108 23 142 56v-174c-48 -20 -91 -29 -142 -29c-153 0 -281 95 -333 229
h-66v112h41v21v1h-41v112z" />
    <glyph glyph-name="guilsinglleft" unicode="&#x2039;" horiz-adv-x="337" 
d="M183 44l-155 207l155 207h126l-153 -207l153 -207h-126z" />
    <glyph glyph-name="guilsinglright" unicode="&#x203a;" horiz-adv-x="337" 
d="M309 251l-155 -207h-126l153 207l-153 207h126z" />
    <glyph glyph-name="daggerdbl" unicode="&#x2021;" horiz-adv-x="441" 
d="M150 52h-130v132h130v154h-130v132h130v230h140v-230h131v-132h-131v-154h131v-132h-131v-230h-140v230z" />
    <glyph glyph-name="periodcentered" unicode="&#xb7;" horiz-adv-x="254" 
d="M42 265c0 47 37 87 85 87c46 0 85 -40 85 -87s-39 -86 -85 -86c-48 0 -85 39 -85 86z" />
    <glyph glyph-name="quotesinglbase" unicode="&#x201a;" horiz-adv-x="263" 
d="M18 -114l68 243h158l-141 -243h-85z" />
    <glyph glyph-name="quotedblbase" unicode="&#x201e;" horiz-adv-x="454" 
d="M210 -114l68 243h158l-141 -243h-85zM18 -114l68 243h158l-141 -243h-85z" />
    <glyph glyph-name="perthousand" unicode="&#x2030;" horiz-adv-x="1156" 
d="M125 544c0 -35 26 -64 63 -64c38 0 65 29 65 64s-27 65 -65 65c-37 0 -63 -30 -63 -65zM20 543c0 94 75 169 168 169s170 -75 170 -169c0 -90 -77 -166 -170 -166s-168 76 -168 166zM522 154c0 -35 27 -64 64 -64c38 0 65 29 65 64c0 36 -27 65 -65 65
c-37 0 -64 -29 -64 -65zM418 153c0 94 75 169 168 169c92 0 169 -75 169 -169c0 -90 -77 -166 -169 -166c-93 0 -168 76 -168 166zM539 712l92 -53l-394 -678l-94 51zM903 154c0 -35 27 -64 64 -64c38 0 65 29 65 64c0 36 -27 65 -65 65c-37 0 -64 -29 -64 -65zM799 153
c0 94 75 169 168 169c92 0 169 -75 169 -169c0 -90 -77 -166 -169 -166c-93 0 -168 76 -168 166z" />
    <glyph glyph-name="Acircumflex" unicode="&#xc2;" horiz-adv-x="634" 
d="M434 714l-116 67l-116 -67v100l116 69l116 -69v-100zM418 131h-200l-56 -131h-159l314 713l314 -713h-159zM367 265l-50 121l-48 -121h98z" />
    <glyph glyph-name="Ecircumflex" unicode="&#xca;" 
d="M65 0v700h432v-146h-282v-100h269v-144h-269v-163h287v-147h-437zM402 714l-116 67l-116 -67v100l116 69l116 -69v-100z" />
    <glyph glyph-name="Aacute" unicode="&#xc1;" horiz-adv-x="634" 
d="M418 131h-200l-56 -131h-159l314 713l314 -713h-159zM367 265l-50 121l-48 -121h98zM239 742l96 138h140l-144 -138h-92z" />
    <glyph glyph-name="Edieresis" unicode="&#xcb;" 
d="M65 0v700h432v-146h-282v-100h269v-144h-269v-163h287v-147h-437zM125 804c0 38 30 70 69 70c37 0 69 -32 69 -70c0 -39 -32 -70 -69 -70c-39 0 -69 31 -69 70zM316 804c0 38 30 70 69 70c37 0 69 -32 69 -70c0 -39 -32 -70 -69 -70c-39 0 -69 31 -69 70z" />
    <glyph glyph-name="Egrave" unicode="&#xc8;" 
d="M65 0v700h432v-146h-282v-100h269v-144h-269v-163h287v-147h-437zM300 880l96 -138h-92l-144 138h140z" />
    <glyph glyph-name="Iacute" unicode="&#xcd;" horiz-adv-x="280" 
d="M65 0v700h150v-700h-150zM64 742l96 138h140l-144 -138h-92z" />
    <glyph glyph-name="Icircumflex" unicode="&#xce;" horiz-adv-x="280" 
d="M65 0v700h150v-700h-150zM261 714l-116 67l-116 -67v100l116 69l116 -69v-100z" />
    <glyph glyph-name="Idieresis" unicode="&#xcf;" horiz-adv-x="280" 
d="M65 0v700h150v-700h-150zM-20 804c0 38 30 70 69 70c37 0 69 -32 69 -70c0 -39 -32 -70 -69 -70c-39 0 -69 31 -69 70zM171 804c0 38 30 70 69 70c37 0 69 -32 69 -70c0 -39 -32 -70 -69 -70c-39 0 -69 31 -69 70z" />
    <glyph glyph-name="Igrave" unicode="&#xcc;" horiz-adv-x="280" 
d="M65 0v700h150v-700h-150zM115 881l96 -138h-92l-144 138h140z" />
    <glyph glyph-name="Oacute" unicode="&#xd3;" horiz-adv-x="769" 
d="M26 349c0 201 159 363 358 363s359 -162 359 -363c0 -200 -159 -362 -358 -362s-359 162 -359 362zM183 349c0 -118 91 -215 202 -215c110 0 201 97 201 215s-92 216 -202 216c-111 0 -201 -98 -201 -216zM311 742l96 138h140l-144 -138h-92z" />
    <glyph glyph-name="Ocircumflex" unicode="&#xd4;" horiz-adv-x="769" 
d="M26 349c0 201 159 363 358 363s359 -162 359 -363c0 -200 -159 -362 -358 -362s-359 162 -359 362zM183 349c0 -118 91 -215 202 -215c110 0 201 97 201 215s-92 216 -202 216c-111 0 -201 -98 -201 -216zM499 714l-116 67l-116 -67v100l116 69l116 -69v-100z" />
    <glyph glyph-name="Ograve" unicode="&#xd2;" horiz-adv-x="769" 
d="M26 349c0 201 159 363 358 363s359 -162 359 -363c0 -200 -159 -362 -358 -362s-359 162 -359 362zM183 349c0 -118 91 -215 202 -215c110 0 201 97 201 215s-92 216 -202 216c-111 0 -201 -98 -201 -216zM347 880l96 -138h-92l-144 138h140z" />
    <glyph glyph-name="Uacute" unicode="&#xda;" horiz-adv-x="623" 
d="M65 700h149v-468c0 -54 45 -99 100 -99s100 45 100 99v468h149v-468c0 -137 -111 -245 -250 -245s-248 108 -248 245v468zM233 742l96 138h140l-144 -138h-92z" />
    <glyph glyph-name="Ucircumflex" unicode="&#xdb;" horiz-adv-x="623" 
d="M65 700h149v-468c0 -54 45 -99 100 -99s100 45 100 99v468h149v-468c0 -137 -111 -245 -250 -245s-248 108 -248 245v468zM431 725l-116 67l-116 -67v100l116 69l116 -69v-100z" />
    <glyph glyph-name="Ugrave" unicode="&#xd9;" horiz-adv-x="623" 
d="M65 700h149v-468c0 -54 45 -99 100 -99s100 45 100 99v468h149v-468c0 -137 -111 -245 -250 -245s-248 108 -248 245v468zM302 880l96 -138h-92l-144 138h140z" />
    <glyph glyph-name="dotlessi" unicode="&#x131;" horiz-adv-x="238" 
d="M50 0v470h138v-470h-138z" />
    <glyph glyph-name="circumflex" unicode="&#x2c6;" horiz-adv-x="362" 
d="M297 494l-116 67l-116 -67v100l116 69l116 -69v-100z" />
    <glyph glyph-name="tilde" unicode="&#x2dc;" horiz-adv-x="359" 
d="M231 539c-41 0 -63 18 -93 18c-15 0 -29 -7 -42 -28l-79 49c28 58 71 77 111 77c28 0 63 -18 93 -18c15 0 29 7 42 28l79 -49c-28 -58 -71 -77 -111 -77z" />
    <glyph glyph-name="macron" unicode="&#xaf;" horiz-adv-x="399" 
d="M62 528v102h274v-102h-274z" />
    <glyph glyph-name="breve" unicode="&#x2d8;" horiz-adv-x="383" 
d="M192 527c-87 0 -149 37 -149 139h104c0 -33 18 -47 45 -47c28 0 45 13 45 47h104c0 -102 -62 -139 -149 -139z" />
    <glyph glyph-name="dotaccent" unicode="&#x2d9;" horiz-adv-x="214" 
d="M37 576c0 37 31 69 70 69c37 0 69 -32 69 -69c0 -40 -30 -70 -69 -70c-41 0 -70 30 -70 70z" />
    <glyph glyph-name="ring" unicode="&#x2da;" horiz-adv-x="300" 
d="M150 491c-64 0 -115 50 -115 113s51 113 115 113s115 -50 115 -113s-51 -113 -115 -113zM150 554c31 0 48 26 48 50s-17 50 -48 50s-48 -26 -48 -50s17 -50 48 -50z" />
    <glyph glyph-name="hungarumlaut" unicode="&#x2dd;" horiz-adv-x="455" 
d="M28 519l96 138h140l-144 -138h-92zM190 519l96 138h140l-144 -138h-92z" />
    <glyph glyph-name="caron" unicode="&#x2c7;" horiz-adv-x="362" 
d="M181 596l116 67v-100l-116 -69l-116 69v100z" />
    <glyph glyph-name="space" unicode=" " horiz-adv-x="251" 
 />
    <glyph glyph-name="S.salt" horiz-adv-x="593" 
d="M25 147c103 0 140 52 164 126l66 203c41 125 122 224 313 224v-147c-103 0 -143 -60 -164 -126l-66 -204c-40 -123 -120 -223 -313 -223v147z" />
    <glyph glyph-name="T_T" horiz-adv-x="922" 
d="M582 0v554h-242v-554h-150v554h-159v146h860v-146h-159v-554h-150z" />
    <glyph glyph-name="I.salt" horiz-adv-x="252" 
d="M46 0v514h150v-514h-150zM33 625c0 47 40 87 87 87s87 -40 87 -87s-40 -86 -87 -86s-87 39 -87 86z" />
    <glyph glyph-name="hyphen.caps" horiz-adv-x="371" 
d="M41 278v125h289v-125h-289z" />
    <glyph glyph-name="endash.caps" horiz-adv-x="640" 
d="M565 403v-100h-490v100h490z" />
    <glyph glyph-name="emdash.caps" horiz-adv-x="1130" 
d="M1055 403v-100h-980v100h980z" />
    <glyph glyph-name="guillemotleft.caps" horiz-adv-x="512" 
d="M183 144l-155 207l155 207h126l-153 -207l153 -207h-126zM358 144l-155 207l155 207h126l-153 -207l153 -207h-126z" />
    <glyph glyph-name="guillemotright.caps" horiz-adv-x="512" 
d="M484 351l-155 -207h-126l153 207l-153 207h126zM309 351l-155 -207h-126l153 207l-153 207h126z" />
    <glyph glyph-name="guilsinglleft.caps" horiz-adv-x="337" 
d="M183 131l-155 207l155 207h126l-153 -207l153 -207h-126z" />
    <glyph glyph-name="guilsinglright.caps" horiz-adv-x="337" 
d="M309 338l-155 -207h-126l153 207l-153 207h126z" />
    <glyph glyph-name="parenleft.caps" horiz-adv-x="320" 
d="M44 355c0 122 22 292 75 421h156c-63 -134 -87 -301 -87 -421c0 -119 24 -287 87 -421h-156c-53 130 -75 300 -75 421z" />
    <glyph glyph-name="parenright.caps" horiz-adv-x="320" 
d="M276 355c0 -121 -22 -291 -75 -421h-156c63 134 87 302 87 421c0 120 -24 287 -87 421h156c53 -129 75 -299 75 -421z" />
    <glyph glyph-name="bracketleft.caps" horiz-adv-x="312" 
d="M182 656v-603h80v-120h-222v843h222v-120h-80z" />
    <glyph glyph-name="bracketright.caps" horiz-adv-x="312" 
d="M130 53v603h-80v120h222v-843h-222v120h80z" />
    <glyph glyph-name="braceleft.caps" horiz-adv-x="311" 
d="M289 652h-43c-11 0 -20 -9 -20 -20v-157c0 -65 -23 -103 -70 -120c47 -17 70 -55 70 -120v-157c0 -11 9 -20 20 -20h43v-125h-105c-57 0 -102 45 -102 102v195c0 47 -14 66 -67 66v119c53 0 67 18 67 65v194c0 58 45 103 102 103h105v-125z" />
    <glyph glyph-name="bar.caps" horiz-adv-x="300" 
d="M79 -124v948h142v-948h-142z" />
    <glyph glyph-name="braceright.caps" horiz-adv-x="311" 
d="M85 475v157c-1 11 -9 20 -20 20h-43v125h105c57 0 102 -45 102 -103v-194c0 -47 14 -65 67 -65v-119c-53 0 -67 -19 -67 -66v-195c0 -57 -45 -102 -102 -102h-105v125h43c11 0 20 9 20 20v157c0 65 23 103 70 120c-47 17 -70 55 -70 120z" />
    <glyph glyph-name="slash.caps" horiz-adv-x="534" 
d="M393 808l118 -55l-370 -852l-118 54z" />
    <glyph glyph-name="backslash.caps" horiz-adv-x="534" 
d="M23 753l118 55l370 -853l-118 -54z" />
    <glyph glyph-name="exclamdown.caps" horiz-adv-x="312" 
d="M90 0v483h133v-483h-133zM71 626c0 47 37 86 85 86c46 0 85 -39 85 -86s-39 -87 -85 -87c-48 0 -85 40 -85 87z" />
    <glyph glyph-name="questiondown.caps" horiz-adv-x="538" 
d="M191 496h139c0 -174 -139 -165 -139 -292c0 -44 28 -79 79 -79c39 0 79 27 79 90h140c0 -134 -88 -228 -219 -228c-132 0 -221 95 -221 217c0 151 142 166 142 292zM348 626c0 -47 -37 -87 -85 -87c-46 0 -85 40 -85 87s39 86 85 86c48 0 85 -39 85 -86z" />
    <glyph glyph-name="periodcentered.caps" horiz-adv-x="254" 
d="M42 332c0 47 37 87 85 87c46 0 85 -40 85 -87s-39 -86 -85 -86c-48 0 -85 39 -85 86z" />
    <glyph glyph-name="bullet.caps" horiz-adv-x="386" 
d="M50 365c0 79 64 143 143 143s143 -64 143 -143s-64 -143 -143 -143s-143 64 -143 143z" />
    <glyph glyph-name="O.salt" horiz-adv-x="574" 
d="M48 0v125h478v-125h-478zM287 712c144 0 260 -111 260 -257s-116 -257 -260 -257s-260 111 -260 257s116 257 260 257zM287 334c68 0 118 51 118 121s-50 121 -118 121s-118 -51 -118 -121s50 -121 118 -121z" />
    <glyph glyph-name="Odieresis.salt" horiz-adv-x="574" 
d="M48 0v125h478v-125h-478zM287 712c144 0 260 -111 260 -257s-116 -257 -260 -257s-260 111 -260 257s116 257 260 257zM287 334c68 0 118 51 118 121s-50 121 -118 121s-118 -51 -118 -121s50 -121 118 -121zM123 809c0 38 30 70 69 70c37 0 69 -32 69 -70
c0 -39 -32 -70 -69 -70c-39 0 -69 31 -69 70zM314 809c0 38 30 70 69 70c37 0 69 -32 69 -70c0 -39 -32 -70 -69 -70c-39 0 -69 31 -69 70z" />
    <glyph glyph-name="Otilde.salt" horiz-adv-x="574" 
d="M48 0v125h478v-125h-478zM287 712c144 0 260 -111 260 -257s-116 -257 -260 -257s-260 111 -260 257s116 257 260 257zM287 334c68 0 118 51 118 121s-50 121 -118 121s-118 -51 -118 -121s50 -121 118 -121zM340 764c-41 0 -63 18 -93 18c-15 0 -29 -7 -42 -28l-79 49
c28 58 71 77 111 77c28 0 63 -18 93 -18c15 0 29 7 42 28l79 -49c-28 -58 -71 -77 -111 -77z" />
    <glyph glyph-name="Oacute.salt" horiz-adv-x="574" 
d="M48 0v125h478v-125h-478zM287 712c144 0 260 -111 260 -257s-116 -257 -260 -257s-260 111 -260 257s116 257 260 257zM287 334c68 0 118 51 118 121s-50 121 -118 121s-118 -51 -118 -121s50 -121 118 -121zM218 752l96 138h140l-144 -138h-92z" />
    <glyph glyph-name="Ocircumflex.salt" horiz-adv-x="574" 
d="M48 0v125h478v-125h-478zM287 712c144 0 260 -111 260 -257s-116 -257 -260 -257s-260 111 -260 257s116 257 260 257zM287 334c68 0 118 51 118 121s-50 121 -118 121s-118 -51 -118 -121s50 -121 118 -121zM404 721l-116 67l-116 -67v100l116 69l116 -69v-100z" />
    <glyph glyph-name="Ograve.salt" horiz-adv-x="574" 
d="M48 0v125h478v-125h-478zM287 712c144 0 260 -111 260 -257s-116 -257 -260 -257s-260 111 -260 257s116 257 260 257zM287 334c68 0 118 51 118 121s-50 121 -118 121s-118 -51 -118 -121s50 -121 118 -121zM258 890l96 -138h-92l-144 138h140z" />
    <glyph glyph-name="L_L" horiz-adv-x="663" 
d="M318 201v499h145v-366h170v-133h-315zM65 0v700h150v-560h272v-140h-422z" />
    <glyph glyph-name="T_H" horiz-adv-x="1046" 
d="M485 0v554h-145v-554h-150v554h-159v146h604v-277h196v277h150v-700h-150v285h-196v-285h-150z" />
    <glyph glyph-name="T_H_E" horiz-adv-x="1316" 
d="M485 0v554h-145v-554h-150v554h-159v146h604v-277h196v277h432v-146h-282v-100h269v-144h-269v-163h287v-147h-437v285h-196v-285h-150z" />
    <glyph glyph-name="D_E" horiz-adv-x="685" 
d="M65 0v700h254c189 0 340 -157 340 -350s-146 -350 -340 -350h-254zM215 138h93c115 0 198 95 198 212s-83 212 -198 212h-93v-109h187v-144h-187v-171z" />
    <glyph glyph-name="T_E" horiz-adv-x="968" 
d="M483 0v554h-143v-554h-150v554h-159v146h884v-146h-282v-100h269v-144h-269v-163h287v-147h-437z" />
    <glyph glyph-name="H_E" horiz-adv-x="896" 
d="M411 0v285h-196v-285h-150v700h150v-277h196v277h432v-146h-282v-100h269v-144h-269v-163h287v-147h-437z" />
    <glyph glyph-name="T_R" horiz-adv-x="1053" 
d="M1009 442c0 -94 -46 -145 -97 -185c80 -60 97 -130 97 -203v-54h-150v54c0 74 -50 135 -126 135h-92v-189h-150v562h-151v-562h-150v562h-159v138h719c143 0 259 -116 259 -258zM856 442c0 66 -54 120 -120 120h-95v-239h95c66 0 120 54 120 119z" />
    <glyph glyph-name="T_Y" horiz-adv-x="982" 
d="M558 700l125 -256l125 256h166l-216 -407v-293h-150v293l-139 261h-129v-554h-150v554h-159v146h527z" />
    <glyph glyph-name="A.salt" horiz-adv-x="852" 
d="M170 0h-169l425 713l425 -713h-169l-52 88h-408zM558 222l-132 231l-132 -231h264z" />
    <glyph glyph-name="T_W" horiz-adv-x="1213" 
d="M1205 700l-306 -713l-92 180l-93 -180l-244 567h-130v-554h-150v554h-159v146h534l165 -395l15 28l-152 367h157l149 -364l148 364h158z" />
    <glyph glyph-name="ampersand.salt" horiz-adv-x="427" 
d="M346 155h-139l-14 25h-10c-14 0 -26 -12 -26 -26s12 -26 26 -26h217v-128h-231c-84 0 -154 70 -154 154c0 73 50 133 116 150l-89 166h321v-128h-110z" />
    <glyph glyph-name="V.salt" horiz-adv-x="858" 
d="M174 700l255 -446l254 446h176l-430 -714l-430 714h175z" />
    <glyph glyph-name="L_A" horiz-adv-x="755" 
d="M65 0v700h150v-560h264v-140h-414zM571 266h-126l-20 -48h-152l235 493l236 -493h-152zM536 364l-28 72l-28 -72h56z" />
    <glyph glyph-name="O_F" horiz-adv-x="901" 
d="M20 456c0 141 113 255 253 255s253 -114 253 -255s-113 -255 -253 -255s-253 114 -253 255zM167 456c0 -63 48 -113 106 -113s105 50 105 113c0 62 -47 114 -105 114s-106 -52 -106 -114zM569 211v489h297v-133h-158v-61h150v-130h-150v-165h-139zM48 0v125h810v-125
h-810z" />
    <glyph glyph-name="A_N_D" horiz-adv-x="1544" 
d="M347 259h-136l-32 -67h-156l256 519l256 -519h-156zM308 364l-29 68l-29 -68h58zM570 192v508h100l193 -193v193h134v-516l-293 271v-263h-134zM1197 315h54c68 0 123 55 123 123c0 69 -55 124 -123 124h-54v-247zM1058 177v523h205c144 0 261 -117 261 -262
c0 -144 -117 -261 -261 -261h-205zM34 0v125h1462v-125h-1462z" />
    <glyph glyph-name="C_O" horiz-adv-x="616" 
d="M411 185c-90 0 -168 73 -168 164c0 92 78 165 168 165c91 0 168 -73 168 -165c0 -91 -77 -164 -168 -164zM411 288c33 0 61 27 61 61c0 35 -28 62 -61 62s-60 -27 -60 -62c0 -34 27 -61 60 -61zM526 184v-168c-48 -20 -91 -29 -142 -29c-199 0 -358 162 -358 362
c0 201 159 363 358 363c51 0 94 -9 142 -29v-168c-45 36 -93 50 -142 50c-111 0 -201 -98 -201 -216s90 -215 201 -215c49 0 97 14 142 50z" />
    <glyph glyph-name="L_E" horiz-adv-x="669" 
d="M65 0v700h150v-560h272v-140h-422zM316 218v482h305v-130h-165v-44h152v-120h-152v-58h168v-130h-308z" />
    <glyph glyph-name="L_I" horiz-adv-x="516" 
d="M65 0v700h150v-560h272v-140h-422zM326 218v482h140v-482h-140z" />
    <glyph glyph-name="L_O" horiz-adv-x="817" 
d="M65 0v700h150v-560h284v-140h-434zM548 205c-138 0 -256 114 -256 252c0 141 118 255 256 255s254 -114 254 -255c0 -138 -116 -252 -254 -252zM548 570c-59 0 -106 -52 -106 -113c0 -59 47 -111 106 -111s105 52 105 111c0 61 -46 113 -105 113z" />
    <glyph glyph-name="O_O" horiz-adv-x="1329" 
d="M26 349c0 201 159 363 358 363c113 0 214 -53 280 -136c65 83 166 136 280 136c199 0 359 -162 359 -363c0 -200 -159 -362 -358 -362c-114 0 -215 53 -281 135c-65 -82 -166 -135 -279 -135c-199 0 -359 162 -359 362zM743 349c0 -118 91 -215 202 -215
c110 0 201 97 201 215s-92 216 -202 216c-111 0 -201 -98 -201 -216zM183 349c0 -118 91 -215 202 -215c110 0 201 97 201 215s-92 216 -202 216c-111 0 -201 -98 -201 -216z" />
    <glyph glyph-name="Adieresis.salt" horiz-adv-x="852" 
d="M170 0h-169l425 713l425 -713h-169l-52 88h-408zM558 222l-132 231l-132 -231h264zM262 804c0 38 30 70 69 70c37 0 69 -32 69 -70c0 -39 -32 -70 -69 -70c-39 0 -69 31 -69 70zM453 804c0 38 30 70 69 70c37 0 69 -32 69 -70c0 -39 -32 -70 -69 -70c-39 0 -69 31 -69 70
z" />
    <glyph glyph-name="Aring.salt" horiz-adv-x="852" 
d="M170 0h-169l425 713l425 -713h-169l-52 88h-408zM558 222l-132 231l-132 -231h264zM426 719c-64 0 -115 50 -115 113s51 113 115 113s115 -50 115 -113s-51 -113 -115 -113zM426 782c31 0 48 26 48 50s-17 50 -48 50s-48 -26 -48 -50s17 -50 48 -50z" />
    <glyph glyph-name="Agrave.salt" horiz-adv-x="852" 
d="M170 0h-169l425 713l425 -713h-169l-52 88h-408zM558 222l-132 231l-132 -231h264zM397 890l96 -138h-92l-144 138h140z" />
    <glyph glyph-name="Atilde.salt" horiz-adv-x="852" 
d="M170 0h-169l425 713l425 -713h-169l-52 88h-408zM558 222l-132 231l-132 -231h264zM476 751c-41 0 -63 18 -93 18c-15 0 -29 -7 -42 -28l-79 49c28 58 71 77 111 77c28 0 63 -18 93 -18c15 0 29 7 42 28l79 -49c-28 -58 -71 -77 -111 -77z" />
    <glyph glyph-name="Acircumflex.salt" horiz-adv-x="852" 
d="M170 0h-169l425 713l425 -713h-169l-52 88h-408zM558 222l-132 231l-132 -231h264zM542 734l-116 67l-116 -67v100l116 69l116 -69v-100z" />
    <glyph glyph-name="Aacute.salt" horiz-adv-x="852" 
d="M170 0h-169l425 713l425 -713h-169l-52 88h-408zM558 222l-132 231l-132 -231h264zM364 752l96 138h140l-144 -138h-92z" />
    <glyph glyph-name="N_o" horiz-adv-x="1040" 
d="M684 267v85h306v-85h-306zM837 394c-93 0 -165 72 -165 159c0 88 72 159 165 159s164 -71 164 -159c0 -87 -71 -159 -164 -159zM837 610c-30 0 -54 -26 -54 -57c0 -32 24 -57 54 -57c29 0 53 25 53 57c0 31 -24 57 -53 57zM60 0v700h128l289 -310v310h144v-713l-417 466
v-453h-144zM684 142v85h306v-85h-306z" />
    <glyph glyph-name="arrow.right" horiz-adv-x="822" 
d="M469 277h-440v130h438l-153 94l69 119l410 -278l-409 -279l-72 118z" />
    <glyph glyph-name="arrow.left" horiz-adv-x="821" 
d="M793 277h-440l157 -96l-72 -118l-409 279l410 278l69 -119l-153 -94h438v-130z" />
    <glyph glyph-name="arrow.up" horiz-adv-x="603" 
d="M366 440v-440h-130v438l-94 -153l-119 69l278 410l279 -409l-118 -72z" />
    <glyph glyph-name="arrow.down" horiz-adv-x="603" 
d="M366 700v-440l96 157l118 -72l-279 -409l-278 410l119 69l94 -153v438h130z" />
    <glyph glyph-name="ornamentA" horiz-adv-x="466" 
d="M378 352l-145 -144l-145 144l145 145z" />
    <glyph glyph-name="E.salt" 
d="M65 0v700h432v-146h-282v-179h269v-144h-269v-84h287v-147h-437z" />
    <glyph glyph-name="Edieresis.salt" 
d="M65 0v700h432v-146h-282v-179h269v-144h-269v-84h287v-147h-437zM125 804c0 38 30 70 69 70c37 0 69 -32 69 -70c0 -39 -32 -70 -69 -70c-39 0 -69 31 -69 70zM316 804c0 38 30 70 69 70c37 0 69 -32 69 -70c0 -39 -32 -70 -69 -70c-39 0 -69 31 -69 70z" />
    <glyph glyph-name="Egrave.salt" 
d="M65 0v700h432v-146h-282v-179h269v-144h-269v-84h287v-147h-437zM303 880l96 -138h-92l-144 138h140z" />
    <glyph glyph-name="Eacute.salt" 
d="M65 0v700h432v-146h-282v-179h269v-144h-269v-84h287v-147h-437zM199 742l96 138h140l-144 -138h-92z" />
    <glyph glyph-name="Ecircumflex.salt" 
d="M65 0v700h432v-146h-282v-179h269v-144h-269v-84h287v-147h-437zM402 714l-116 67l-116 -67v100l116 69l116 -69v-100z" />
    <glyph glyph-name="F.salt" 
d="M65 0v700h432v-146h-282v-184h269v-144h-269v-226h-150z" />
    <glyph glyph-name="N_N" horiz-adv-x="1098" 
d="M60 0v700h128l289 -310v310h128l289 -310v310h144v-713l-417 466v-466l-417 466v-453h-144z" />
    <glyph glyph-name="L_M" horiz-adv-x="1043" 
d="M65 0v700h150v-560h264v-140h-414zM412 713l227 -417l227 417l142 -713h-153l-52 299l-164 -312l-164 312l-17 -97h-148z" />
    <glyph glyph-name="D_O" horiz-adv-x="1249" 
d="M65 0v700h254c106 0 200 -50 262 -128c66 85 167 140 283 140c199 0 359 -162 359 -363c0 -200 -159 -362 -358 -362c-116 0 -218 54 -283 139c-62 -77 -155 -126 -263 -126h-254zM663 349c0 -118 91 -215 202 -215c110 0 201 97 201 215s-92 216 -202 216
c-111 0 -201 -98 -201 -216zM215 138h93c115 0 198 95 198 212s-83 212 -198 212h-93v-424z" />
    <glyph glyph-name="N_T" horiz-adv-x="850" 
d="M60 0v700h128l322 -332v186h-137v146h435v-146h-153v-567l-451 481v-468h-144z" />
    <glyph glyph-name="N_K" horiz-adv-x="992" 
d="M60 0v700h128l283 -304v304h150v-247l179 247h176l-241 -315l258 -385h-186l-165 259l-21 -26v-246l-417 466v-453h-144z" />
    <glyph glyph-name="o_f" horiz-adv-x="391" 
d="M86 0v321h217v-87h-123v-49h114v-83h-114v-102h-94zM196 373c-92 0 -171 76 -171 168c0 95 79 171 171 171c93 0 170 -76 170 -171c0 -92 -77 -168 -170 -168zM196 617c-40 0 -71 -34 -71 -76c0 -39 31 -73 71 -73s70 34 70 73c0 42 -30 76 -70 76z" />
    <glyph glyph-name="b_y" horiz-adv-x="334" 
d="M298 606c0 -24 -9 -42 -21 -56c19 -16 31 -40 31 -69c0 -55 -48 -102 -103 -102h-160v321h158c52 0 95 -41 95 -94zM135 617v-36h48c10 0 18 8 18 18s-8 18 -18 18h-48zM135 462h50c13 0 23 10 23 23s-10 23 -23 23h-50v-46zM120 321l47 -97l47 97h107l-107 -188v-133
h-94v133l-107 188h107z" />
    <glyph glyph-name="o_n" horiz-adv-x="391" 
d="M53 0v321h76l118 -118v118h90v-334l-194 195v-182h-90zM196 373c-92 0 -171 76 -171 168c0 95 79 171 171 171c93 0 170 -76 170 -171c0 -92 -77 -168 -170 -168zM196 617c-40 0 -71 -34 -71 -76c0 -39 31 -73 71 -73s70 34 70 73c0 42 -30 76 -70 76z" />
    <glyph glyph-name="a_t" horiz-adv-x="313" 
d="M202 415h-91l-12 -32h-95l152 330l153 -330h-94zM177 481l-21 52l-20 -52h41zM109 0v234h-79v87h253v-87h-80v-234h-94z" />
    <glyph glyph-name="i_n" horiz-adv-x="385" 
d="M143 379v321h94v-321h-94zM53 0v321h76l113 -118v118h90v-334l-189 195v-182h-90z" />
    <glyph glyph-name="t_o" horiz-adv-x="391" 
d="M148 379v234h-79v87h253v-87h-80v-234h-94zM196 -14c-92 0 -171 76 -171 168c0 95 79 171 171 171c93 0 170 -76 170 -171c0 -92 -77 -168 -170 -168zM196 230c-40 0 -71 -34 -71 -76c0 -39 31 -73 71 -73s70 34 70 73c0 42 -30 76 -70 76z" />
    <glyph glyph-name="d_e" horiz-adv-x="387" 
d="M156 467h32c41 0 73 32 73 72c0 41 -32 74 -73 74h-32v-146zM62 379v321h142c87 0 157 -72 157 -161c0 -88 -69 -160 -157 -160h-142zM62 0v321h253v-87h-158v-28h149v-81h-149v-38h160v-87h-255z" />
    <glyph glyph-name="d_a" horiz-adv-x="349" 
d="M202 32h-91l-12 -32h-95l152 330l153 -330h-94zM177 98l-21 52l-20 -52h41zM113 467h37c41 0 73 32 73 72c0 41 -32 74 -73 74h-37v-146zM19 379v321h147c87 0 157 -72 157 -161c0 -88 -69 -160 -157 -160h-147z" />
    <glyph glyph-name="d_o" horiz-adv-x="392" 
d="M196 -14c-92 0 -171 76 -171 168c0 95 79 171 171 171c93 0 170 -76 170 -171c0 -92 -77 -168 -170 -168zM196 230c-40 0 -71 -34 -71 -76c0 -39 31 -73 71 -73s70 34 70 73c0 42 -30 76 -70 76zM156 467h37c41 0 73 32 73 72c0 41 -32 74 -73 74h-37v-146zM62 379v321
h147c87 0 157 -72 157 -161c0 -88 -69 -160 -157 -160h-147z" />
    <glyph glyph-name="e_m" horiz-adv-x="388" 
d="M261 105l-67 -118l-66 118l-20 -105h-93l72 330l107 -185l107 185l72 -330h-92zM83 379v321h226v-87h-133v-28h124v-81h-124v-38h135v-87h-228z" />
    <glyph glyph-name="n_o" horiz-adv-x="391" 
d="M53 379v321h76l118 -118v118h90v-334l-194 195v-182h-90zM196 -13c-92 0 -171 76 -171 168c0 95 79 171 171 171c93 0 170 -76 170 -171c0 -92 -77 -168 -170 -168zM196 231c-40 0 -71 -34 -71 -76c0 -39 31 -73 71 -73s70 34 70 73c0 42 -30 76 -70 76z" />
    <glyph glyph-name="a_u" horiz-adv-x="314" 
d="M202 411h-91l-12 -32h-95l152 330l153 -330h-94zM177 477l-21 52l-20 -52h41zM157 -13c-67 0 -121 55 -121 122v212h94v-211c0 -15 13 -28 28 -28s28 13 28 28v211h93v-212c0 -67 -54 -122 -122 -122z" />
    <glyph glyph-name="d_u" horiz-adv-x="349" 
d="M157 -13c-67 0 -121 55 -121 122v212h94v-211c0 -15 13 -28 28 -28s28 13 28 28v211h93v-212c0 -67 -54 -122 -122 -122zM113 467h37c41 0 73 32 73 72c0 41 -32 74 -73 74h-37v-146zM19 379v321h147c87 0 157 -72 157 -161c0 -88 -69 -160 -157 -160h-147z" />
    <glyph glyph-name="e_n" horiz-adv-x="385" 
d="M53 0v321h76l113 -118v118h90v-334l-189 195v-182h-90zM77 379v321h226v-87h-133v-28h124v-81h-124v-38h135v-87h-228z" />
    <glyph glyph-name="L_U" horiz-adv-x="745" 
d="M65 0v700h150v-560h284v-140h-434zM512 205c-99 0 -179 81 -179 180v315h140v-315c0 -22 17 -39 39 -39s39 17 39 39v315h140v-315c0 -99 -79 -180 -179 -180z" />
    <glyph glyph-name="Eth" unicode="&#xd0;" horiz-adv-x="685" 
d="M15 304v136h50v260h254c189 0 340 -157 340 -350s-146 -350 -340 -350h-254v304h-50zM215 138h93c115 0 198 95 198 212s-83 212 -198 212h-93v-122h121v-136h-121v-166z" />
    <glyph glyph-name="multiply" unicode="&#xd7;" horiz-adv-x="543" 
d="M375 42l-124 130l-124 -130l-93 86l131 136l-133 138l85 91l134 -139l134 139l85 -91l-133 -138l131 -136z" />
    <glyph glyph-name="Yacute" unicode="&#xdd;" horiz-adv-x="598" 
d="M174 700l125 -256l125 256h166l-216 -407v-293h-150v293l-216 407h166zM229 743l96 138h140l-144 -138h-92z" />
    <glyph glyph-name="Thorn" unicode="&#xde;" horiz-adv-x="587" 
d="M65 0v700h150v-78h106c134 0 240 -110 240 -242c0 -135 -106 -242 -240 -242h-106v-138h-150zM408 380c0 57 -44 104 -100 104h-93v-207h93c65 0 100 43 100 103z" />
    <glyph glyph-name="eth" unicode="&#xf0;" horiz-adv-x="510" 
d="M3 194v104h47v172h216c127 0 229 -105 229 -235s-100 -235 -229 -235h-216v194h-47zM188 128h54c60 0 107 47 107 107s-47 107 -107 107h-54v-44h86v-104h-86v-66z" />
    <glyph glyph-name="yacute" unicode="&#xfd;" horiz-adv-x="458" 
d="M298 0h-138v195l-157 275h158l68 -143l68 143h158l-157 -275v-195zM168 519l96 138h140l-144 -138h-92z" />
    <glyph glyph-name="thorn" unicode="&#xfe;" horiz-adv-x="438" 
d="M423 255c0 -92 -72 -171 -164 -171h-71v-84h-138v470h138v-51h71c92 0 164 -75 164 -164zM280 252c0 20 -16 36 -37 36h-55v-73h55c21 0 37 16 37 37z" />
    <glyph glyph-name="Lslash" unicode="&#x141;" horiz-adv-x="505" 
d="M25 235l-30 107l70 19v339h150v-299l167 45l30 -108l-197 -53v-145h264v-140h-414v245z" />
    <glyph glyph-name="lslash" unicode="&#x142;" horiz-adv-x="388" 
d="M24 143l-29 104l55 14v209h138v-172l88 24l28 -104l-116 -31v-59h171v-128h-309v150z" />
    <glyph glyph-name="Obreve" unicode="&#x14e;" horiz-adv-x="769" 
d="M26 349c0 201 159 363 358 363s359 -162 359 -363c0 -200 -159 -362 -358 -362s-359 162 -359 362zM183 349c0 -118 91 -215 202 -215c110 0 201 97 201 215s-92 216 -202 216c-111 0 -201 -98 -201 -216zM389 750c-87 0 -149 37 -149 139h104c0 -33 18 -47 45 -47
c28 0 45 13 45 47h104c0 -102 -62 -139 -149 -139z" />
    <glyph glyph-name="Scaron" unicode="&#x160;" horiz-adv-x="571" 
d="M233 425h95c117 0 210 -96 210 -210c0 -116 -94 -215 -210 -215h-277v147h261c39 0 71 28 71 67s-32 67 -71 67h-90c-115 0 -206 98 -206 212c0 113 91 207 206 207h233v-143h-222c-37 0 -66 -29 -66 -66s29 -66 66 -66zM282 816l116 67v-100l-116 -69l-116 69v100z" />
    <glyph glyph-name="scaron" unicode="&#x161;" horiz-adv-x="402" 
d="M181 306h49c86 0 153 -67 153 -153c0 -80 -73 -153 -153 -153h-179v128h172c13 0 24 11 24 24s-11 24 -24 24h-48c-82 0 -147 65 -147 147s65 147 147 147h155v-128h-149c-10 0 -18 -8 -18 -18s8 -18 18 -18zM188 596l116 67v-100l-116 -69l-116 69v100z" />
    <glyph glyph-name="Zcaron" unicode="&#x17d;" horiz-adv-x="526" 
d="M489 0h-479l259 554h-209v146h446l-262 -553h245v-147zM284 816l116 67v-100l-116 -69l-116 69v100z" />
    <glyph glyph-name="zcaron" unicode="&#x17e;" horiz-adv-x="433" 
d="M401 0h-382l172 342h-147v128h369l-172 -342h160v-128zM221 596l116 67v-100l-116 -69l-116 69v100z" />
    <glyph glyph-name="minus" unicode="&#x2212;" horiz-adv-x="512" 
d="M0 319h512v-125h-512v125z" />
    </font>
</defs>
</svg>
