<?xml version="1.0" standalone="no"?>
<!DOCTYPE svg PUBLIC "-//W3C//DTD SVG 1.1//EN" "http://www.w3.org/Graphics/SVG/1.1/DTD/svg11.dtd" >
<svg xmlns="http://www.w3.org/2000/svg" xmlns:xlink="http://www.w3.org/1999/xlink" version="1.1">
<metadata>
Created by FontForge 20190801 at Mon Dec 12 17:22:47 2011
 By Jimmy Wärting
Copyright (c) 2011 by atipo. All rights reserved.
</metadata>
<defs>
<font id="Cassannet-Regular" horiz-adv-x="376" >
  <font-face 
    font-family="Cassannet Regular"
    font-weight="400"
    font-stretch="normal"
    units-per-em="1000"
    panose-1="2 0 5 3 0 0 0 2 0 3"
    ascent="750"
    descent="-250"
    x-height="470"
    cap-height="700"
    bbox="-33 -244 1477 945"
    underline-thickness="50"
    underline-position="-100"
    unicode-range="U+0020-FB02"
  />
<missing-glyph horiz-adv-x="397" 
 />
    <glyph glyph-name="ellipsis" unicode="&#x2e;&#x2e;&#x2e;" horiz-adv-x="736" 
d="M49 54c0 36 29 67 66 67c36 0 66 -31 66 -67c0 -37 -30 -67 -66 -67c-37 0 -66 30 -66 67zM302 54c0 36 29 67 66 67c36 0 66 -31 66 -67c0 -37 -30 -67 -66 -67c-37 0 -66 30 -66 67zM555 54c0 36 29 67 66 67c36 0 66 -31 66 -67c0 -37 -30 -67 -66 -67
c-37 0 -66 30 -66 67z" />
    <glyph glyph-name="fi" unicode="fi" horiz-adv-x="592" 
d="M60 0v470h278v-90h-182v-100h172v-88h-172v-192h-96zM436 0v470h96v-470h-96z" />
    <glyph glyph-name="fl" unicode="fl" horiz-adv-x="742" 
d="M60 0v470h278v-90h-182v-100h172v-88h-172v-192h-96zM436 0v470h96v-380h192v-90h-288z" />
    <glyph glyph-name="F_I" unicode="FI" horiz-adv-x="687" 
d="M75 0v700h316v-98h-214v-185h200v-96h-200v-321h-102zM510 0v700h102v-700h-102z" />
    <glyph glyph-name="F_L" unicode="FL" horiz-adv-x="830" 
d="M75 0v700h316v-98h-214v-185h200v-96h-200v-321h-102zM510 0v700h102v-600h194v-100h-296z" />
    <glyph glyph-name="F_F" unicode="FF" horiz-adv-x="892" 
d="M75 0v700h316v-98h-214v-185h200v-96h-200v-321h-102zM522 0v700h316v-98h-214v-185h200v-96h-200v-321h-102z" />
    <glyph glyph-name=".notdef" horiz-adv-x="397" 
 />
    <glyph glyph-name="exclam" unicode="!" horiz-adv-x="312" 
d="M111 177v523h90v-523h-90zM90 54c0 36 29 67 66 67c36 0 66 -31 66 -67c0 -37 -30 -67 -66 -67c-37 0 -66 30 -66 67z" />
    <glyph glyph-name="quotedbl" unicode="&#x22;" horiz-adv-x="365" 
d="M62 700h91l-16 -303h-58zM212 700h91l-17 -303h-57z" />
    <glyph glyph-name="numbersign" unicode="#" horiz-adv-x="568" 
d="M71 412v75h112l32 180h72l-33 -180h117l32 180h72l-33 -180h85v-75h-99l-26 -143h95v-75h-109l-35 -194h-69l34 194h-118l-35 -194h-69l34 194h-89v75h103l25 143h-98zM240 412l-26 -143h118l25 143h-117z" />
    <glyph glyph-name="dollar" unicode="$" horiz-adv-x="571" 
d="M261 -90v90h-188v100h188v205h-32c-108 0 -194 93 -194 200s86 195 194 195h32v90h55v-90h136v-95h-136v-204h28c110 0 198 -90 198 -198c0 -110 -89 -203 -198 -203h-28v-90h-55zM241 401h20v204h-20c-56 0 -102 -46 -102 -102s46 -102 102 -102zM326 305h-10v-205h10
c60 0 108 43 108 102c0 60 -48 103 -108 103z" />
    <glyph glyph-name="percent" unicode="%" horiz-adv-x="684" 
d="M519 712l52 -30l-406 -701l-53 29zM83 553c0 -56 43 -102 102 -102c60 0 103 46 103 102c0 57 -43 103 -103 103c-59 0 -102 -46 -102 -103zM25 552c0 89 72 160 160 160s161 -71 161 -160c0 -86 -73 -157 -161 -157s-160 71 -160 157zM395 145c0 -56 43 -102 102 -102
c60 0 103 46 103 102c0 57 -43 103 -103 103c-59 0 -102 -46 -102 -103zM337 144c0 89 72 160 160 160s161 -71 161 -160c0 -86 -73 -157 -161 -157s-160 71 -160 157z" />
    <glyph glyph-name="ampersand" unicode="&#x26;" horiz-adv-x="581" 
d="M473 181h-112l-65 124h-48c-60 0 -108 -43 -108 -103c0 -59 48 -102 108 -102h302v-100h-320c-109 0 -198 93 -198 203c0 108 88 198 198 198h16l-156 299h396v-86h-237z" />
    <glyph glyph-name="quotesingle" unicode="'" horiz-adv-x="215" 
d="M62 700h91l-16 -303h-58z" />
    <glyph glyph-name="parenleft" unicode="(" horiz-adv-x="320" 
d="M64 295c0 134 21 292 74 421h111c-59 -125 -81 -283 -81 -421s22 -296 81 -421h-111c-53 129 -74 287 -74 421z" />
    <glyph glyph-name="parenright" unicode=")" horiz-adv-x="320" 
d="M256 295c0 -134 -21 -292 -74 -421h-111c59 125 81 283 81 421s-22 296 -81 421h111c53 -129 74 -287 74 -421z" />
    <glyph glyph-name="asterisk" unicode="*" horiz-adv-x="367" 
d="M160 700h69v-95l81 48l35 -59l-85 -50l85 -50l-35 -58l-81 50v-96h-69v97l-87 -49l-34 57l85 49l-84 50l31 57l89 -49v98z" />
    <glyph glyph-name="plus" unicode="+" horiz-adv-x="512" 
d="M213 518h86v-216h213v-86h-213v-216h-86v216h-213v86h213v216z" />
    <glyph glyph-name="comma" unicode="," horiz-adv-x="249" 
d="M29 -114l66 214h111l-115 -214h-62z" />
    <glyph glyph-name="hyphen" unicode="-" horiz-adv-x="371" 
d="M52 201v88h266v-88h-266z" />
    <glyph glyph-name="period" unicode="." horiz-adv-x="228" 
d="M49 54c0 36 29 67 66 67c36 0 66 -31 66 -67c0 -37 -30 -67 -66 -67c-37 0 -66 30 -66 67z" />
    <glyph glyph-name="slash" unicode="/" horiz-adv-x="534" 
d="M414 737l83 -37l-378 -870l-82 37z" />
    <glyph glyph-name="zero" unicode="0" horiz-adv-x="613" 
d="M306 712c201 0 273 -192 273 -362s-72 -363 -273 -363s-273 193 -273 363s72 362 273 362zM306 75c129 0 169 129 169 275s-40 274 -169 274s-169 -128 -169 -274s40 -275 169 -275z" />
    <glyph glyph-name="one" unicode="1" horiz-adv-x="338" 
d="M165 615h-101v86h199v-701h-98v615z" />
    <glyph glyph-name="two" unicode="2" horiz-adv-x="551" 
d="M53 503c0 114 102 209 225 209s225 -95 225 -209c0 -61 -20 -97 -56 -143l-215 -274h266v-86h-450l227 294c-122 1 -222 96 -222 209zM154 503c0 -67 55 -122 122 -122s123 55 123 122s-56 122 -123 122s-122 -55 -122 -122z" />
    <glyph glyph-name="three" unicode="3" horiz-adv-x="519" 
d="M240 327h-83l163 287h-237v86h396l-166 -296c97 -12 180 -91 180 -193c0 -123 -81 -224 -236 -224c-129 0 -219 79 -219 198h102c4 -68 50 -110 117 -110c82 0 132 49 132 124c0 77 -55 128 -149 128z" />
    <glyph glyph-name="four" unicode="4" horiz-adv-x="597" 
d="M488 206h86v-86h-86v-120h-98v120h-361l459 593v-507zM390 206v245l-187 -245h187z" />
    <glyph glyph-name="five" unicode="5" horiz-adv-x="499" 
d="M431 614h-257l-15 -129c13 3 26 3 41 3c148 0 268 -113 268 -252s-110 -252 -268 -252c-81 0 -145 31 -190 75l57 67c34 -34 87 -54 133 -54c94 0 164 72 164 164c0 91 -81 164 -173 164c-58 0 -95 -20 -128 -48l38 348h330v-86z" />
    <glyph glyph-name="six" unicode="6" horiz-adv-x="515" 
d="M31 208c0 46 14 88 38 124l258 385l74 -55l-152 -231h7c127 0 228 -100 228 -223c0 -121 -101 -221 -228 -221c-124 0 -225 100 -225 221zM380 209c0 74 -55 131 -122 131s-123 -57 -123 -131s56 -131 123 -131s122 57 122 131z" />
    <glyph glyph-name="seven" unicode="7" horiz-adv-x="566" 
d="M91 28l300 586h-331v86h482l-369 -717z" />
    <glyph glyph-name="eight" unicode="8" horiz-adv-x="531" 
d="M265 -13c-123 0 -224 92 -224 206c0 71 40 135 100 172c-47 35 -76 90 -76 153c0 107 89 194 200 194s200 -87 200 -194c0 -63 -29 -118 -76 -153c60 -37 100 -101 100 -172c0 -114 -101 -206 -224 -206zM265 316c-67 0 -120 -52 -120 -119s53 -118 120 -118
s120 51 120 118s-53 119 -120 119zM265 621c-58 0 -102 -44 -102 -105c0 -60 44 -104 102 -104s102 44 102 104c0 61 -44 105 -102 105z" />
    <glyph glyph-name="nine" unicode="9" horiz-adv-x="515" 
d="M484 491c0 -46 -14 -89 -38 -124l-258 -385l-74 55l152 231h-7c-127 0 -228 100 -228 223c0 121 101 221 228 221c124 0 225 -100 225 -221zM135 490c0 -74 55 -131 122 -131s123 57 123 131s-56 131 -123 131s-122 -57 -122 -131z" />
    <glyph glyph-name="colon" unicode=":" horiz-adv-x="228" 
d="M49 54c0 36 29 67 66 67c36 0 66 -31 66 -67c0 -37 -30 -67 -66 -67c-37 0 -66 30 -66 67zM49 408c0 36 29 67 66 67c36 0 66 -31 66 -67c0 -37 -30 -67 -66 -67c-37 0 -66 30 -66 67z" />
    <glyph glyph-name="semicolon" unicode=";" horiz-adv-x="249" 
d="M90 408c0 36 29 67 66 67c36 0 66 -31 66 -67c0 -37 -30 -67 -66 -67c-37 0 -66 30 -66 67zM29 -114l66 214h111l-115 -214h-62z" />
    <glyph glyph-name="equal" unicode="=" horiz-adv-x="512" 
d="M0 427h512v-86h-512v86zM0 242h512v-86h-512v86z" />
    <glyph glyph-name="question" unicode="?" horiz-adv-x="565" 
d="M340 174h-97c0 160 157 205 157 324c0 65 -47 119 -120 119c-71 0 -114 -57 -114 -122h-98c0 118 82 217 212 217s220 -94 220 -214c0 -156 -160 -189 -160 -324zM222 54c0 36 29 67 66 67c36 0 66 -31 66 -67c0 -37 -30 -67 -66 -67c-37 0 -66 30 -66 67z" />
    <glyph glyph-name="at" unicode="@" horiz-adv-x="728" 
d="M422 401h131v85c-36 15 -75 23 -115 23c-171 0 -301 -141 -301 -307s135 -301 301 -301v-100c-211 0 -406 173 -406 401c0 222 177 407 406 407c78 0 159 -23 215 -61v-548h-231c-109 0 -198 93 -198 203c0 108 88 198 198 198zM553 100v205h-113
c-60 0 -108 -43 -108 -103c0 -59 48 -102 108 -102h113z" />
    <glyph glyph-name="A" unicode="A" horiz-adv-x="622" 
d="M427 175h-232l-72 -175h-108l296 713l296 -713h-108zM393 265l-82 209l-82 -209h164z" />
    <glyph glyph-name="B" unicode="B" horiz-adv-x="588" 
d="M459 370c55 -30 93 -91 93 -165c0 -112 -92 -205 -205 -205h-272v700h267c104 0 189 -85 189 -189c0 -64 -36 -109 -72 -141zM325 610h-148v-199h148c56 0 100 44 100 99c0 56 -44 100 -100 100zM177 90h153c63 0 116 54 116 115c0 64 -52 116 -116 116h-153v-231z" />
    <glyph glyph-name="C" unicode="C" horiz-adv-x="566" 
d="M515 122v-113c-39 -14 -80 -22 -124 -22c-199 0 -359 162 -359 362c0 201 160 363 359 363c44 0 85 -8 124 -22v-114c-37 23 -79 36 -124 36c-137 0 -249 -118 -249 -263c0 -144 112 -262 249 -262c45 0 87 12 124 35z" />
    <glyph glyph-name="D" unicode="D" horiz-adv-x="692" 
d="M177 90h131c143 0 245 117 245 260s-103 260 -245 260h-131v-520zM75 0v700h245c188 0 339 -157 339 -350s-146 -350 -339 -350h-245z" />
    <glyph glyph-name="E" unicode="E" horiz-adv-x="537" 
d="M75 0v700h408v-98h-306v-169h292v-96h-292v-237h312v-100h-414z" />
    <glyph glyph-name="F" unicode="F" horiz-adv-x="537" 
d="M75 0v700h408v-98h-306v-185h292v-96h-292v-321h-102z" />
    <glyph glyph-name="G" unicode="G" horiz-adv-x="792" 
d="M382 310v94h364c3 -18 4 -36 4 -55c0 -200 -150 -362 -359 -362c-199 0 -359 162 -359 362c0 201 160 363 359 363c117 0 222 -57 287 -145c0 0 -85 -66 -85 -65c-45 66 -119 110 -202 110c-137 0 -249 -118 -249 -263c0 -144 112 -262 249 -262c141 0 242 92 249 223
h-258z" />
    <glyph glyph-name="H" unicode="H" horiz-adv-x="627" 
d="M75 0v700h102v-301h273v301h102v-700h-102v309h-273v-309h-102z" />
    <glyph glyph-name="I" unicode="I" horiz-adv-x="252" 
d="M75 0v700h102v-700h-102z" />
    <glyph glyph-name="J" unicode="J" horiz-adv-x="477" 
d="M21 195h102c0 -76 39 -106 88 -106c50 0 89 40 89 89v522h102v-521c0 -107 -85 -192 -191 -192c-105 0 -190 76 -190 208z" />
    <glyph glyph-name="K" unicode="K" horiz-adv-x="566" 
d="M75 0v700h102v-318l233 318h117l-239 -323l260 -377h-129l-194 293l-48 -65v-228h-102z" />
    <glyph glyph-name="L" unicode="L" horiz-adv-x="487" 
d="M75 0v700h102v-600h286v-100h-388z" />
    <glyph glyph-name="M" unicode="M" horiz-adv-x="820" 
d="M171 713l234 -491l234 491l132 -713h-106l-69 395l-191 -408l-191 408l-69 -395h-106z" />
    <glyph glyph-name="N" unicode="N" horiz-adv-x="688" 
d="M70 0v700h94l358 -441v441h96v-712l-452 540v-528h-96z" />
    <glyph glyph-name="O" unicode="O" horiz-adv-x="782" 
d="M32 349c0 201 160 363 359 363s359 -162 359 -363c0 -200 -160 -362 -359 -362s-359 162 -359 362zM142 349c0 -144 112 -262 249 -262s249 118 249 262c0 145 -112 263 -249 263s-249 -118 -249 -263z" />
    <glyph glyph-name="P" unicode="P" horiz-adv-x="585" 
d="M553 467c0 -129 -103 -232 -231 -232h-145v-235h-102v700h247c128 0 231 -105 231 -233zM447 467c0 79 -61 143 -139 143h-131v-285h131c89 0 139 59 139 142z" />
    <glyph glyph-name="Q" unicode="Q" horiz-adv-x="784" 
d="M33 349c0 201 160 363 359 363s359 -162 359 -363c0 -184 -135 -336 -311 -359v-141h-96v141c-176 23 -311 175 -311 359zM143 349c0 -127 87 -234 201 -257v95h96v-95c114 23 201 130 201 257c0 145 -112 263 -249 263s-249 -118 -249 -263z" />
    <glyph glyph-name="R" unicode="R" horiz-adv-x="624" 
d="M448 250c87 -50 117 -137 117 -221v-29h-104v29c0 77 -57 176 -159 176h-124v-205h-103v700h227c149 0 263 -104 263 -248c0 -100 -61 -173 -117 -202zM459 452c0 81 -62 158 -145 158h-136v-315h136c83 0 145 79 145 157z" />
    <glyph glyph-name="S" unicode="S" horiz-adv-x="571" 
d="M241 401h103c110 0 198 -90 198 -198c0 -110 -89 -203 -198 -203h-271v100h253c60 0 108 43 108 102c0 60 -48 103 -108 103h-97c-108 0 -194 93 -194 200s86 195 194 195h223v-95h-211c-56 0 -102 -46 -102 -102s46 -102 102 -102z" />
    <glyph glyph-name="T" unicode="T" horiz-adv-x="502" 
d="M200 0v602h-173v98h448v-98h-173v-602h-102z" />
    <glyph glyph-name="U" unicode="U" horiz-adv-x="621" 
d="M75 700h102v-477c0 -75 62 -138 138 -138s139 63 139 138v477h102v-477c0 -132 -108 -236 -242 -236c-133 0 -239 104 -239 236v477z" />
    <glyph glyph-name="V" unicode="V" horiz-adv-x="612" 
d="M594 700l-288 -712l-288 712h107l181 -445l181 445h107z" />
    <glyph glyph-name="W" unicode="W" horiz-adv-x="802" 
d="M784 700l-288 -712l-95 234l-95 -234l-288 712h107l181 -445l41 99l-139 346h107l181 -445l181 445h107z" />
    <glyph glyph-name="X" unicode="X" horiz-adv-x="537" 
d="M162 700l107 -211l107 211h109l-166 -324l193 -376h-108l-135 261l-135 -261h-108l193 376l-166 324h109z" />
    <glyph glyph-name="Y" unicode="Y" horiz-adv-x="568" 
d="M335 295v-295h-102v295l-216 405h113l154 -304l154 304h113z" />
    <glyph glyph-name="Z" unicode="Z" horiz-adv-x="505" 
d="M468 0h-444l282 602h-244v98h407l-284 -600h283v-100z" />
    <glyph glyph-name="bracketleft" unicode="[" horiz-adv-x="315" 
d="M165 632v-675h90v-84h-190v843h190v-84h-90z" />
    <glyph glyph-name="backslash" unicode="\" horiz-adv-x="534" 
d="M37 700l83 37l377 -870l-82 -37z" />
    <glyph glyph-name="bracketright" unicode="]" horiz-adv-x="315" 
d="M150 -43v675h-90v84h190v-843h-190v84h90z" />
    <glyph glyph-name="underscore" unicode="_" horiz-adv-x="640" 
d="M620 -68v-68h-601v68h601z" />
    <glyph glyph-name="grave" unicode="`" horiz-adv-x="229" 
d="M116 657l95 -130h-70l-123 130h98z" />
    <glyph glyph-name="a" unicode="a" horiz-adv-x="440" 
d="M298 83h-155l-35 -83h-101l213 482l213 -482h-101zM268 168l-48 113l-48 -113h96z" />
    <glyph glyph-name="b" unicode="b" horiz-adv-x="456" 
d="M366 250c37 -20 65 -61 65 -111c0 -76 -65 -139 -140 -139h-231v470h228c69 0 127 -54 127 -126c0 -43 -25 -73 -49 -94zM156 382v-92h110c26 0 47 21 47 46s-21 46 -47 46h-110zM156 90h114c31 0 56 25 56 57c0 31 -25 57 -56 57h-114v-114z" />
    <glyph glyph-name="c" unicode="c" horiz-adv-x="385" 
d="M21 233c0 138 113 248 249 248c28 0 54 -4 79 -13v-103c-19 12 -46 23 -79 23c-84 0 -148 -70 -148 -155c0 -84 64 -154 148 -154c33 0 61 11 79 23v-103c-25 -8 -51 -13 -79 -13c-136 0 -249 110 -249 247z" />
    <glyph glyph-name="d" unicode="d" horiz-adv-x="523" 
d="M156 90h92c86 0 146 65 146 146s-60 146 -146 146h-92v-292zM60 0v470h214c126 0 228 -104 228 -234s-99 -236 -228 -236h-214z" />
    <glyph glyph-name="e" unicode="e" 
d="M60 0v470h278v-90h-182v-90h172v-88h-172v-112h186v-90h-282z" />
    <glyph glyph-name="f" unicode="f" 
d="M60 0v470h278v-90h-182v-100h172v-88h-172v-192h-96z" />
    <glyph glyph-name="g" unicode="g" horiz-adv-x="535" 
d="M469 384l-79 -58c-26 38 -70 62 -120 62c-84 0 -148 -70 -148 -155c0 -84 64 -154 148 -154c70 0 121 45 141 103h-147v88h253c2 -12 3 -24 3 -37c0 -136 -113 -247 -250 -247c-136 0 -249 111 -249 247c0 138 113 248 249 248c92 0 157 -40 199 -97z" />
    <glyph glyph-name="h" unicode="h" horiz-adv-x="496" 
d="M60 0v470h96v-191h184v191h96v-470h-96v195h-184v-195h-96z" />
    <glyph glyph-name="i" unicode="i" horiz-adv-x="216" 
d="M60 0v470h96v-470h-96z" />
    <glyph glyph-name="j" unicode="j" horiz-adv-x="391" 
d="M19 151h96c0 -51 27 -72 59 -72c34 0 61 28 61 60v331h96v-326c0 -86 -70 -157 -157 -157c-85 0 -155 66 -155 164z" />
    <glyph glyph-name="k" unicode="k" horiz-adv-x="441" 
d="M60 0v470h96v-202l142 202h108l-154 -209l187 -261h-121l-125 182l-37 -49v-133h-96z" />
    <glyph glyph-name="l" unicode="l" 
d="M60 0v470h96v-380h192v-90h-288z" />
    <glyph glyph-name="m" unicode="m" horiz-adv-x="580" 
d="M411 225l-121 -237l-121 237l-43 -225h-90l94 482l160 -313l160 313l94 -482h-90z" />
    <glyph glyph-name="n" unicode="n" horiz-adv-x="499" 
d="M60 0v470h84l205 -240v240h90v-482l-289 347v-335h-90z" />
    <glyph glyph-name="o" unicode="o" horiz-adv-x="541" 
d="M270 -14c-136 0 -249 111 -249 247c0 138 113 248 249 248c137 0 250 -110 250 -248c0 -136 -113 -247 -250 -247zM270 79c85 0 149 70 149 154c0 85 -64 155 -149 155c-84 0 -148 -70 -148 -155c0 -84 64 -154 148 -154z" />
    <glyph glyph-name="p" unicode="p" horiz-adv-x="436" 
d="M422 314c0 -87 -69 -162 -155 -162h-111v-152h-96v470h207c86 0 155 -71 155 -156zM320 311c0 39 -32 71 -71 71h-93v-142h93c39 0 71 32 71 71z" />
    <glyph glyph-name="q" unicode="q" horiz-adv-x="541" 
d="M232 -108v97c-119 18 -211 121 -211 244c0 138 113 248 249 248c137 0 250 -110 250 -248c0 -123 -92 -226 -211 -244v-97h-77zM309 152v-68c65 17 110 78 110 149c0 85 -64 155 -149 155c-84 0 -148 -70 -148 -155c0 -71 45 -132 110 -149v68h77z" />
    <glyph glyph-name="r" unicode="r" horiz-adv-x="451" 
d="M219 138h-63v-138h-96v470h207c86 0 155 -71 155 -156c0 -57 -30 -115 -74 -148c52 -26 74 -85 74 -139v-27h-96v22c0 52 -38 116 -107 116zM320 304c0 42 -35 78 -78 78h-86v-156h86c43 0 78 35 78 78z" />
    <glyph glyph-name="s" unicode="s" horiz-adv-x="393" 
d="M168 286h56c80 0 143 -63 143 -143c0 -75 -69 -143 -143 -143h-172v86h165c31 0 56 25 56 56s-25 56 -56 56h-55c-75 0 -136 61 -136 136c0 76 61 136 136 136h145v-86h-139c-27 0 -49 -22 -49 -49s22 -49 49 -49z" />
    <glyph glyph-name="t" unicode="t" horiz-adv-x="386" 
d="M145 0v378h-116v92h326v-92h-114v-378h-96z" />
    <glyph glyph-name="u" unicode="u" horiz-adv-x="446" 
d="M228 -13c-93 0 -168 75 -168 168v315h96v-319c0 -40 32 -72 72 -72s72 32 72 72v319h96v-315c0 -93 -75 -168 -168 -168z" />
    <glyph glyph-name="v" unicode="v" horiz-adv-x="430" 
d="M109 470l106 -269l106 269h96l-202 -482l-202 482h96z" />
    <glyph glyph-name="w" unicode="w" horiz-adv-x="596" 
d="M380 181l106 289h96l-202 -482l-78 180l-75 -180l-213 482h96l121 -289l32 81l-84 208h95z" />
    <glyph glyph-name="x" unicode="x" horiz-adv-x="424" 
d="M302 0l-90 176l-90 -176h-107l130 252l-112 218h107l72 -141l72 141h107l-112 -218l130 -252h-107z" />
    <glyph glyph-name="y" unicode="y" horiz-adv-x="432" 
d="M121 470l95 -187l95 187h107l-154 -272v-198h-96v198l-154 272h107z" />
    <glyph glyph-name="z" unicode="z" horiz-adv-x="433" 
d="M394 0h-379l229 382h-196v88h362l-229 -380h213v-90z" />
    <glyph glyph-name="braceleft" unicode="{" horiz-adv-x="305" 
d="M124 294c36 -10 76 -41 76 -141v-166c0 -17 14 -31 31 -31h40v-84h-88c-47 0 -85 38 -85 86v195c0 75 -15 104 -75 104v74c60 0 75 29 75 104v195c0 48 38 86 85 86h88v-84h-40c-17 0 -31 -14 -31 -31v-166c0 -100 -40 -131 -76 -141z" />
    <glyph glyph-name="bar" unicode="|" horiz-adv-x="301" 
d="M100 -198v948h101v-948h-101z" />
    <glyph glyph-name="braceright" unicode="}" horiz-adv-x="305" 
d="M181 294c-36 10 -76 41 -76 141v166c0 17 -14 31 -31 31h-40v84h88c47 0 85 -38 85 -86v-195c0 -75 15 -104 75 -104v-74c-60 0 -75 -29 -75 -104v-195c0 -48 -38 -86 -85 -86h-88v84h40c17 0 31 14 31 31v166c0 100 40 131 76 141z" />
    <glyph glyph-name="Adieresis" unicode="&#xc4;" horiz-adv-x="622" 
d="M427 175h-232l-72 -175h-108l296 713l296 -713h-108zM393 265l-82 209l-82 -209h164zM170 799c0 26 21 49 48 49c26 0 48 -23 48 -49c0 -27 -22 -49 -48 -49c-27 0 -48 22 -48 49zM357 799c0 26 21 49 48 49c26 0 48 -23 48 -49c0 -27 -22 -49 -48 -49
c-27 0 -48 22 -48 49z" />
    <glyph glyph-name="Aring" unicode="&#xc5;" horiz-adv-x="622" 
d="M427 175h-232l-72 -175h-108l296 713l296 -713h-108zM393 265l-82 209l-82 -209h164zM214 848c0 54 43 97 97 97s98 -43 98 -97c0 -55 -44 -98 -98 -98s-97 43 -97 98zM264 847c0 -25 21 -46 47 -46s47 21 47 46c0 28 -21 47 -47 47c-27 0 -47 -19 -47 -47z" />
    <glyph glyph-name="Ccedilla" unicode="&#xc7;" horiz-adv-x="567" 
d="M515 122v-113c-39 -14 -80 -22 -124 -22c-30 0 -60 4 -88 11l-88 -127l-72 49l77 110c-112 61 -188 181 -188 319c0 201 160 363 359 363c44 0 85 -8 124 -22v-114c-37 23 -79 36 -124 36c-137 0 -249 -118 -249 -263c0 -102 56 -190 137 -234l48 71l72 -49l-32 -49
c8 -1 16 -1 24 -1c45 0 87 12 124 35z" />
    <glyph glyph-name="Eacute" unicode="&#xc9;" horiz-adv-x="539" 
d="M77 0v700h408v-98h-306v-169h292v-96h-292v-237h312v-100h-414zM233 750l95 130h98l-123 -130h-70z" />
    <glyph glyph-name="Ntilde" unicode="&#xd1;" horiz-adv-x="700" 
d="M70 0v700h94l358 -441v441h96v-712l-452 540v-528h-96zM394 759c-32 0 -61 20 -93 20c-21 0 -36 -10 -46 -31l-50 30c19 53 59 67 96 67c36 0 63 -20 93 -20c21 0 36 10 46 31l50 -30c-19 -53 -59 -67 -96 -67z" />
    <glyph glyph-name="Odieresis" unicode="&#xd6;" horiz-adv-x="782" 
d="M32 349c0 201 160 363 359 363s359 -162 359 -363c0 -200 -160 -362 -359 -362s-359 162 -359 362zM142 349c0 -144 112 -262 249 -262s249 118 249 262c0 145 -112 263 -249 263s-249 -118 -249 -263zM249 799c0 26 21 49 48 49c26 0 48 -23 48 -49
c0 -27 -22 -49 -48 -49c-27 0 -48 22 -48 49zM436 799c0 26 21 49 48 49c26 0 48 -23 48 -49c0 -27 -22 -49 -48 -49c-27 0 -48 22 -48 49z" />
    <glyph glyph-name="Udieresis" unicode="&#xdc;" horiz-adv-x="621" 
d="M75 700h102v-477c0 -75 62 -138 138 -138s139 63 139 138v477h102v-477c0 -132 -108 -236 -242 -236c-133 0 -239 104 -239 236v477zM174 799c0 26 21 49 48 49c26 0 48 -23 48 -49c0 -27 -22 -49 -48 -49c-27 0 -48 22 -48 49zM361 799c0 26 21 49 48 49
c26 0 48 -23 48 -49c0 -27 -22 -49 -48 -49c-27 0 -48 22 -48 49z" />
    <glyph glyph-name="aacute" unicode="&#xe1;" horiz-adv-x="440" 
d="M163 527l95 130h98l-123 -130h-70zM298 83h-155l-35 -83h-101l213 482l213 -482h-101zM268 168l-48 113l-48 -113h96z" />
    <glyph glyph-name="agrave" unicode="&#xe0;" horiz-adv-x="440" 
d="M298 83h-155l-35 -83h-101l213 482l213 -482h-101zM268 168l-48 113l-48 -113h96zM180 657l95 -130h-70l-123 130h98z" />
    <glyph glyph-name="acircumflex" unicode="&#xe2;" horiz-adv-x="440" 
d="M298 83h-155l-35 -83h-101l213 482l213 -482h-101zM268 168l-48 113l-48 -113h96zM320 514l-99 60l-100 -60v78l100 60l99 -60v-78z" />
    <glyph glyph-name="adieresis" unicode="&#xe4;" horiz-adv-x="440" 
d="M298 83h-155l-35 -83h-101l213 482l213 -482h-101zM268 168l-48 113l-48 -113h96zM79 576c0 26 21 49 48 49c26 0 48 -23 48 -49c0 -27 -22 -49 -48 -49c-27 0 -48 22 -48 49zM266 576c0 26 21 49 48 49c26 0 48 -23 48 -49c0 -27 -22 -49 -48 -49c-27 0 -48 22 -48 49z
" />
    <glyph glyph-name="atilde" unicode="&#xe3;" horiz-adv-x="440" 
d="M298 83h-155l-35 -83h-101l213 482l213 -482h-101zM268 168l-48 113l-48 -113h96zM266 545c-32 0 -61 20 -93 20c-21 0 -36 -10 -46 -31l-50 30c19 53 59 67 96 67c36 0 63 -20 93 -20c21 0 36 10 46 31l50 -30c-19 -53 -59 -67 -96 -67z" />
    <glyph glyph-name="aring" unicode="&#xe5;" horiz-adv-x="440" 
d="M122 620c0 54 43 97 97 97s98 -43 98 -97c0 -55 -44 -98 -98 -98s-97 43 -97 98zM172 619c0 -25 21 -46 47 -46s47 21 47 46c0 28 -21 47 -47 47c-27 0 -47 -19 -47 -47zM298 83h-155l-35 -83h-101l213 482l213 -482h-101zM268 168l-48 113l-48 -113h96z" />
    <glyph glyph-name="ccedilla" unicode="&#xe7;" horiz-adv-x="385" 
d="M21 233c0 138 113 248 249 248c28 0 54 -4 79 -13v-103c-19 12 -46 23 -79 23c-84 0 -148 -70 -148 -155c0 -47 20 -89 52 -118l38 56l68 -47l-30 -44c6 -1 13 -1 20 -1c33 0 61 11 79 23v-103c-25 -8 -51 -13 -79 -13c-27 0 -53 4 -77 12l-69 -102l-68 47l64 93
c-60 45 -99 116 -99 197z" />
    <glyph glyph-name="eacute" unicode="&#xe9;" 
d="M60 0v470h278v-90h-182v-90h172v-88h-172v-112h186v-90h-282zM151 527l95 130h98l-123 -130h-70z" />
    <glyph glyph-name="egrave" unicode="&#xe8;" 
d="M60 0v470h278v-90h-182v-90h172v-88h-172v-112h186v-90h-282zM189 657l95 -130h-70l-123 130h98z" />
    <glyph glyph-name="ecircumflex" unicode="&#xea;" 
d="M60 0v470h278v-90h-182v-90h172v-88h-172v-112h186v-90h-282zM304 514l-99 60l-100 -60v78l100 60l99 -60v-78z" />
    <glyph glyph-name="edieresis" unicode="&#xeb;" 
d="M60 0v470h278v-90h-182v-90h172v-88h-172v-112h186v-90h-282zM59 576c0 26 21 49 48 49c26 0 48 -23 48 -49c0 -27 -22 -49 -48 -49c-27 0 -48 22 -48 49zM246 576c0 26 21 49 48 49c26 0 48 -23 48 -49c0 -27 -22 -49 -48 -49c-27 0 -48 22 -48 49z" />
    <glyph glyph-name="iacute" unicode="&#xed;" horiz-adv-x="216" 
d="M60 0v470h96v-470h-96zM46 527l95 130h98l-123 -130h-70z" />
    <glyph glyph-name="igrave" unicode="&#xec;" horiz-adv-x="216" 
d="M60 0v470h96v-470h-96zM78 657l95 -130h-70l-123 130h98z" />
    <glyph glyph-name="icircumflex" unicode="&#xee;" horiz-adv-x="216" 
d="M60 0v470h96v-470h-96zM209 514l-99 60l-100 -60v78l100 60l99 -60v-78z" />
    <glyph glyph-name="idieresis" unicode="&#xef;" horiz-adv-x="216" 
d="M60 0v470h96v-470h-96zM-33 576c0 26 21 49 48 49c26 0 48 -23 48 -49c0 -27 -22 -49 -48 -49c-27 0 -48 22 -48 49zM154 576c0 26 21 49 48 49c26 0 48 -23 48 -49c0 -27 -22 -49 -48 -49c-27 0 -48 22 -48 49z" />
    <glyph glyph-name="ntilde" unicode="&#xf1;" horiz-adv-x="499" 
d="M60 0v470h84l205 -240v240h90v-482l-289 347v-335h-90zM302 545c-32 0 -61 20 -93 20c-21 0 -36 -10 -46 -31l-50 30c19 53 59 67 96 67c36 0 63 -20 93 -20c21 0 36 10 46 31l50 -30c-19 -53 -59 -67 -96 -67z" />
    <glyph glyph-name="oacute" unicode="&#xf3;" horiz-adv-x="541" 
d="M270 -14c-136 0 -249 111 -249 247c0 138 113 248 249 248c137 0 250 -110 250 -248c0 -136 -113 -247 -250 -247zM270 79c85 0 149 70 149 154c0 85 -64 155 -149 155c-84 0 -148 -70 -148 -155c0 -84 64 -154 148 -154zM206 527l95 130h98l-123 -130h-70z" />
    <glyph glyph-name="ograve" unicode="&#xf2;" horiz-adv-x="541" 
d="M270 -14c-136 0 -249 111 -249 247c0 138 113 248 249 248c137 0 250 -110 250 -248c0 -136 -113 -247 -250 -247zM270 79c85 0 149 70 149 154c0 85 -64 155 -149 155c-84 0 -148 -70 -148 -155c0 -84 64 -154 148 -154zM248 657l95 -130h-70l-123 130h98z" />
    <glyph glyph-name="ocircumflex" unicode="&#xf4;" horiz-adv-x="541" 
d="M270 -14c-136 0 -249 111 -249 247c0 138 113 248 249 248c137 0 250 -110 250 -248c0 -136 -113 -247 -250 -247zM270 79c85 0 149 70 149 154c0 85 -64 155 -149 155c-84 0 -148 -70 -148 -155c0 -84 64 -154 148 -154zM370 514l-99 60l-100 -60v78l100 60l99 -60v-78z
" />
    <glyph glyph-name="odieresis" unicode="&#xf6;" horiz-adv-x="541" 
d="M270 -14c-136 0 -249 111 -249 247c0 138 113 248 249 248c137 0 250 -110 250 -248c0 -136 -113 -247 -250 -247zM270 79c85 0 149 70 149 154c0 85 -64 155 -149 155c-84 0 -148 -70 -148 -155c0 -84 64 -154 148 -154zM129 576c0 26 21 49 48 49c26 0 48 -23 48 -49
c0 -27 -22 -49 -48 -49c-27 0 -48 22 -48 49zM316 576c0 26 21 49 48 49c26 0 48 -23 48 -49c0 -27 -22 -49 -48 -49c-27 0 -48 22 -48 49z" />
    <glyph glyph-name="otilde" unicode="&#xf5;" horiz-adv-x="541" 
d="M270 -14c-136 0 -249 111 -249 247c0 138 113 248 249 248c137 0 250 -110 250 -248c0 -136 -113 -247 -250 -247zM270 79c85 0 149 70 149 154c0 85 -64 155 -149 155c-84 0 -148 -70 -148 -155c0 -84 64 -154 148 -154zM317 545c-32 0 -61 20 -93 20
c-21 0 -36 -10 -46 -31l-50 30c19 53 59 67 96 67c36 0 63 -20 93 -20c21 0 36 10 46 31l50 -30c-19 -53 -59 -67 -96 -67z" />
    <glyph glyph-name="uacute" unicode="&#xfa;" horiz-adv-x="446" 
d="M228 -13c-93 0 -168 75 -168 168v315h96v-319c0 -40 32 -72 72 -72s72 32 72 72v319h96v-315c0 -93 -75 -168 -168 -168zM165 527l95 130h98l-123 -130h-70z" />
    <glyph glyph-name="ugrave" unicode="&#xf9;" horiz-adv-x="446" 
d="M228 -13c-93 0 -168 75 -168 168v315h96v-319c0 -40 32 -72 72 -72s72 32 72 72v319h96v-315c0 -93 -75 -168 -168 -168zM214 657l95 -130h-70l-123 130h98z" />
    <glyph glyph-name="ucircumflex" unicode="&#xfb;" horiz-adv-x="446" 
d="M228 -13c-93 0 -168 75 -168 168v315h96v-319c0 -40 32 -72 72 -72s72 32 72 72v319h96v-315c0 -93 -75 -168 -168 -168zM327 514l-99 60l-100 -60v78l100 60l99 -60v-78z" />
    <glyph glyph-name="udieresis" unicode="&#xfc;" horiz-adv-x="446" 
d="M228 -13c-93 0 -168 75 -168 168v315h96v-319c0 -40 32 -72 72 -72s72 32 72 72v319h96v-315c0 -93 -75 -168 -168 -168zM90 576c0 26 21 49 48 49c26 0 48 -23 48 -49c0 -27 -22 -49 -48 -49c-27 0 -48 22 -48 49zM277 576c0 26 21 49 48 49c26 0 48 -23 48 -49
c0 -27 -22 -49 -48 -49c-27 0 -48 22 -48 49z" />
    <glyph glyph-name="dagger" unicode="&#x2020;" horiz-adv-x="448" 
d="M28 455h147v245h98v-245h147v-88h-147v-545h-98v545h-147v88z" />
    <glyph glyph-name="degree" unicode="&#xb0;" horiz-adv-x="356" 
d="M178 442c-75 0 -134 60 -134 135s59 135 134 135s134 -60 134 -135s-59 -135 -134 -135zM178 658c-44 0 -78 -34 -78 -81c0 -45 33 -81 78 -81s78 36 78 81c0 47 -34 81 -78 81z" />
    <glyph glyph-name="cent" unicode="&#xa2;" horiz-adv-x="385" 
d="M231 -124v113c-118 18 -210 120 -210 244s92 226 210 245v105h54v-103c22 -1 43 -5 64 -12v-107c-19 15 -46 24 -79 24c-82 0 -145 -69 -145 -152c0 -82 63 -151 145 -151c33 0 60 10 79 24v-107c-21 -6 -42 -11 -64 -12v-111h-54z" />
    <glyph glyph-name="sterling" unicode="&#xa3;" horiz-adv-x="574" 
d="M491 542h-96c-3 30 -30 74 -95 74c-61 0 -102 -49 -102 -103v-105h222v-90h-222v-218h162c46 0 83 37 83 83c-1 19 -4 33 -9 51h102c1 -5 6 -33 6 -55c0 -108 -76 -179 -208 -179h-289v100h55v218h-37v90h37v108c0 101 84 196 197 196c126 0 191 -83 194 -170z" />
    <glyph glyph-name="section" unicode="&#xa7;" horiz-adv-x="579" 
d="M265 429h78c107 0 192 -86 192 -191c0 -66 -37 -118 -76 -146c49 -33 76 -82 76 -145c0 -107 -86 -187 -192 -187h-220v87h203c58 0 105 42 105 99c0 58 -47 100 -105 100h-94c-105 0 -188 90 -188 194c0 74 42 123 88 152c-36 26 -68 75 -68 138c0 104 83 189 188 189
h196v-87h-183c-57 0 -101 -45 -101 -102s44 -101 101 -101zM333 336h-90c-54 0 -99 -44 -99 -98s45 -99 99 -99h90c54 0 98 45 98 99s-44 98 -98 98z" />
    <glyph glyph-name="bullet" unicode="&#x2022;" horiz-adv-x="387" 
d="M50 256c0 79 64 143 143 143s143 -64 143 -143s-64 -143 -143 -143s-143 64 -143 143z" />
    <glyph glyph-name="paragraph" unicode="&#xb6;" horiz-adv-x="585" 
d="M255 -127v376c-124 0 -226 102 -226 226s102 226 226 226h279v-81h-59v-747h-80v747h-60v-747h-80z" />
    <glyph glyph-name="registered" unicode="&#xae;" horiz-adv-x="337" 
d="M168 436c-76 0 -137 61 -137 138s61 138 137 138s137 -61 137 -138s-61 -138 -137 -138zM168 687c-62 0 -109 -49 -109 -113s47 -113 109 -113s109 49 109 113s-47 113 -109 113zM204 552c20 -11 27 -31 27 -50v-7h-26v7c0 17 -13 40 -36 40h-28v-47h-26v160h56
c34 0 60 -24 60 -57c0 -23 -14 -39 -27 -46zM205 598c0 19 -14 35 -33 35h-31v-70h31c19 0 33 17 33 35z" />
    <glyph glyph-name="copyright" unicode="&#xa9;" horiz-adv-x="780" 
d="M390 -13c-200 0 -359 160 -359 362c0 203 159 363 359 363s359 -160 359 -363c0 -202 -159 -362 -359 -362zM390 650c-163 0 -292 -131 -292 -301c0 -168 129 -300 292 -300s292 132 292 300c0 170 -129 301 -292 301zM474 221v-66c-22 -8 -45 -12 -71 -12
c-115 0 -207 93 -207 209s92 209 207 209c26 0 49 -4 71 -12v-66c-21 13 -45 20 -71 20c-79 0 -144 -68 -144 -151s65 -151 144 -151c26 0 50 7 71 20z" />
    <glyph glyph-name="trademark" unicode="&#x2122;" horiz-adv-x="514" 
d="M93 458v205h-60v38h162v-38h-59v-205h-43zM346 537l88 168l46 -247h-41l-23 134l-70 -138l-70 138l-23 -134h-41l46 247z" />
    <glyph glyph-name="acute" unicode="&#xb4;" horiz-adv-x="229" 
d="M18 527l95 130h98l-123 -130h-70z" />
    <glyph glyph-name="dieresis" unicode="&#xa8;" horiz-adv-x="453" 
d="M95 576c0 26 21 49 48 49c26 0 48 -23 48 -49c0 -27 -22 -49 -48 -49c-27 0 -48 22 -48 49zM282 576c0 26 21 49 48 49c26 0 48 -23 48 -49c0 -27 -22 -49 -48 -49c-27 0 -48 22 -48 49z" />
    <glyph glyph-name="notequal" unicode="&#x2260;" horiz-adv-x="512" 
d="M0 427h373l81 81l28 -28l-53 -53h83v-86h-169l-99 -99h268v-86h-353l-73 -73l-28 28l45 45h-103v86h189l98 99h-287v86z" />
    <glyph glyph-name="AE" unicode="&#xc6;" horiz-adv-x="813" 
d="M425 175h-230l-73 -175h-108l293 700h457v-98h-410l72 -169h338v-96h-297l100 -237h197v-100h-266zM386 275l-76 189l-76 -189h152z" />
    <glyph glyph-name="Oslash" unicode="&#xd8;" horiz-adv-x="783" 
d="M33 349c0 201 160 363 359 363c92 0 176 -35 239 -93l80 80l40 -39l-81 -81c50 -63 81 -143 81 -230c0 -200 -160 -362 -359 -362c-89 0 -170 32 -233 85l-86 -86l-40 39l87 87c-55 64 -87 146 -87 237zM143 349c0 -61 20 -117 53 -161l361 357c-44 42 -102 67 -165 67
c-137 0 -249 -118 -249 -263zM641 349c0 57 -18 110 -48 154l-359 -357c43 -37 98 -59 158 -59c137 0 249 118 249 262z" />
    <glyph glyph-name="yen" unicode="&#xa5;" horiz-adv-x="568" 
d="M374 369h166v-86h-205v-65h205v-86h-205v-132h-102v132h-205v86h205v65h-205v86h165l-176 331h113l154 -304l154 304h113z" />
    <glyph glyph-name="ordfeminine" unicode="&#xaa;" horiz-adv-x="265" 
d="M172 485h-80l-23 -52h-65l128 280l128 -280h-65zM132 595l-26 -62h52z" />
    <glyph glyph-name="ordmasculine" unicode="&#xba;" horiz-adv-x="322" 
d="M161 428c-80 0 -142 64 -142 142c0 79 62 143 142 143s142 -64 142 -143c0 -78 -62 -142 -142 -142zM161 651c-43 0 -76 -37 -76 -81c0 -43 33 -81 76 -81c42 0 76 38 76 81c0 44 -34 81 -76 81z" />
    <glyph glyph-name="ae" unicode="&#xe6;" horiz-adv-x="546" 
d="M8 0l213 470h287v-90h-246l40 -90h196v-88h-156l51 -112h119v-90h-179l-34 83h-155l-35 -83h-101zM269 168l-48 110l-48 -110h96z" />
    <glyph glyph-name="oslash" unicode="&#xf8;" horiz-adv-x="541" 
d="M270 -14c-56 0 -108 19 -150 50l-67 -70l-32 34l64 68c-40 44 -64 102 -64 165c0 138 113 248 249 248c58 0 112 -20 154 -53l63 66l33 -34l-61 -65c38 -43 61 -100 61 -162c0 -136 -113 -247 -250 -247zM122 233c0 -35 11 -68 30 -94l207 219c-25 19 -55 30 -89 30
c-84 0 -148 -70 -148 -155zM270 79c85 0 149 70 149 154c0 34 -10 65 -28 91l-206 -218c24 -17 53 -27 85 -27z" />
    <glyph glyph-name="questiondown" unicode="&#xbf;" horiz-adv-x="565" 
d="M225 294h97c0 -160 -157 -205 -157 -324c0 -65 47 -119 120 -119c71 0 114 57 114 122h98c0 -118 -82 -217 -212 -217s-220 94 -220 214c0 156 160 189 160 324zM343 414c0 -36 -29 -67 -66 -67c-36 0 -66 31 -66 67c0 37 30 67 66 67c37 0 66 -30 66 -67z" />
    <glyph glyph-name="exclamdown" unicode="&#xa1;" horiz-adv-x="312" 
d="M116 -232v523h90v-523h-90zM95 414c0 37 29 67 66 67c36 0 66 -30 66 -67c0 -36 -30 -67 -66 -67c-37 0 -66 31 -66 67z" />
    <glyph glyph-name="florin" unicode="&#x192;" horiz-adv-x="388" 
d="M366 700v-90h-54c-74 0 -114 -51 -114 -114v-52h130v-84h-130v-436h-98v436h-73v84h73v55c0 115 89 201 208 201h58z" />
    <glyph glyph-name="guillemotleft" unicode="&#xab;" horiz-adv-x="506" 
d="M195 44l-152 207l152 207h86l-151 -207l151 -207h-86zM376 44l-152 207l152 207h86l-151 -207l151 -207h-86z" />
    <glyph glyph-name="guillemotright" unicode="&#xbb;" horiz-adv-x="506" 
d="M462 251l-152 -207h-86l151 207l-151 207h86zM281 251l-152 -207h-86l151 207l-151 207h86z" />
    <glyph glyph-name="Agrave" unicode="&#xc0;" horiz-adv-x="622" 
d="M427 175h-232l-72 -175h-108l296 713l296 -713h-108zM393 265l-82 209l-82 -209h164zM261 880l95 -130h-70l-123 130h98z" />
    <glyph glyph-name="Atilde" unicode="&#xc3;" horiz-adv-x="622" 
d="M427 175h-232l-72 -175h-108l296 713l296 -713h-108zM393 265l-82 209l-82 -209h164zM358 759c-32 0 -61 20 -93 20c-21 0 -36 -10 -46 -31l-50 30c19 53 59 67 96 67c36 0 63 -20 93 -20c21 0 36 10 46 31l50 -30c-19 -53 -59 -67 -96 -67z" />
    <glyph glyph-name="Otilde" unicode="&#xd5;" horiz-adv-x="782" 
d="M32 349c0 201 160 363 359 363s359 -162 359 -363c0 -200 -160 -362 -359 -362s-359 162 -359 362zM142 349c0 -144 112 -262 249 -262s249 118 249 262c0 145 -112 263 -249 263s-249 -118 -249 -263zM437 759c-32 0 -61 20 -93 20c-21 0 -36 -10 -46 -31l-50 30
c19 53 59 67 96 67c36 0 63 -20 93 -20c21 0 36 10 46 31l50 -30c-19 -53 -59 -67 -96 -67z" />
    <glyph glyph-name="OE" unicode="&#x152;" horiz-adv-x="1016" 
d="M32 349c0 201 160 363 359 363c32 0 63 -4 92 -12h481v-98h-315c44 -46 76 -104 91 -169h210v-96h-201c-3 -92 -39 -175 -98 -237h319v-100h-483c-31 -8 -63 -13 -96 -13c-199 0 -359 162 -359 362zM142 349c0 -144 112 -262 249 -262s249 118 249 262
c0 145 -112 263 -249 263s-249 -118 -249 -263z" />
    <glyph glyph-name="oe" unicode="&#x153;" horiz-adv-x="735" 
d="M270 -14c-136 0 -249 111 -249 247c0 138 113 248 249 248c25 0 50 -4 73 -11h354v-90h-226c20 -27 34 -57 42 -90h174v-88h-169c-6 -42 -21 -80 -45 -112h228v-90h-349c-26 -9 -53 -14 -82 -14zM270 79c85 0 149 70 149 154c0 85 -64 155 -149 155
c-84 0 -148 -70 -148 -155c0 -84 64 -154 148 -154z" />
    <glyph glyph-name="endash" unicode="&#x2013;" horiz-adv-x="640" 
d="M75 210v70h490v-70h-490z" />
    <glyph glyph-name="emdash" unicode="&#x2014;" horiz-adv-x="1131" 
d="M75 280h980v-70h-980v70z" />
    <glyph glyph-name="quotedblleft" unicode="&#x201c;" horiz-adv-x="426" 
d="M317 700l66 -214h-62l-115 214h111zM154 700l66 -214h-62l-115 214h111z" />
    <glyph glyph-name="quotedblright" unicode="&#x201d;" horiz-adv-x="426" 
d="M43 486l66 214h111l-115 -214h-62zM206 486l66 214h111l-115 -214h-62z" />
    <glyph glyph-name="quoteleft" unicode="&#x2018;" horiz-adv-x="263" 
d="M154 700l66 -214h-62l-115 214h111z" />
    <glyph glyph-name="quoteright" unicode="&#x2019;" horiz-adv-x="263" 
d="M43 486l66 214h111l-115 -214h-62z" />
    <glyph glyph-name="divide" unicode="&#xf7;" horiz-adv-x="512" 
d="M191 90c0 36 29 67 66 67c36 0 66 -31 66 -67c0 -37 -30 -67 -66 -67c-37 0 -66 30 -66 67zM191 428c0 36 29 67 66 67c36 0 66 -31 66 -67c0 -37 -30 -67 -66 -67c-37 0 -66 30 -66 67zM0 302h512v-86h-512v86z" />
    <glyph glyph-name="ydieresis" unicode="&#xff;" horiz-adv-x="432" 
d="M121 470l95 -187l95 187h107l-154 -272v-198h-96v198l-154 272h107zM75 576c0 26 21 49 48 49c26 0 48 -23 48 -49c0 -27 -22 -49 -48 -49c-27 0 -48 22 -48 49zM262 576c0 26 21 49 48 49c26 0 48 -23 48 -49c0 -27 -22 -49 -48 -49c-27 0 -48 22 -48 49z" />
    <glyph glyph-name="Ydieresis" unicode="&#x178;" horiz-adv-x="568" 
d="M335 295v-295h-102v295l-216 405h113l154 -304l154 304h113zM143 799c0 26 21 49 48 49c26 0 48 -23 48 -49c0 -27 -22 -49 -48 -49c-27 0 -48 22 -48 49zM330 799c0 26 21 49 48 49c26 0 48 -23 48 -49c0 -27 -22 -49 -48 -49c-27 0 -48 22 -48 49z" />
    <glyph glyph-name="fraction" unicode="&#x2044;" horiz-adv-x="314" 
d="M258 793l85 -30l-287 -855l-85 30z" />
    <glyph glyph-name="Euro" unicode="&#x20ac;" horiz-adv-x="603" 
d="M25 237v70h41c-1 13 -2 28 -2 64h-39v70h50c40 156 180 271 348 271c44 0 85 -8 124 -22v-114c-37 23 -79 36 -124 36c-107 0 -196 -63 -234 -171h250v-70h-264s-1 -9 -1 -22c0 -14 1 -29 3 -42h262v-70h-241c33 -88 126 -150 225 -150c45 0 87 12 124 35v-113
c-39 -14 -80 -22 -124 -22c-160 0 -295 105 -342 250h-56z" />
    <glyph glyph-name="guilsinglleft" unicode="&#x2039;" horiz-adv-x="325" 
d="M195 44l-152 207l152 207h86l-151 -207l151 -207h-86z" />
    <glyph glyph-name="guilsinglright" unicode="&#x203a;" horiz-adv-x="325" 
d="M281 251l-152 -207h-86l151 207l-151 207h86z" />
    <glyph glyph-name="daggerdbl" unicode="&#x2021;" horiz-adv-x="448" 
d="M28 455h147v245h98v-245h147v-88h-147v-212h147v-88h-147v-245h-98v245h-147v88h147v212h-147v88z" />
    <glyph glyph-name="periodcentered" unicode="&#xb7;" horiz-adv-x="230" 
d="M49 265c0 36 29 67 66 67c36 0 66 -31 66 -67c0 -37 -30 -67 -66 -67c-37 0 -66 30 -66 67z" />
    <glyph glyph-name="quotesinglbase" unicode="&#x201a;" horiz-adv-x="263" 
d="M43 -114l66 214h111l-115 -214h-62z" />
    <glyph glyph-name="quotedblbase" unicode="&#x201e;" horiz-adv-x="426" 
d="M43 -114l66 214h111l-115 -214h-62zM206 -114l66 214h111l-115 -214h-62z" />
    <glyph glyph-name="perthousand" unicode="&#x2030;" horiz-adv-x="1058" 
d="M519 712l52 -30l-406 -701l-53 29zM83 553c0 -56 43 -102 102 -102c60 0 103 46 103 102c0 57 -43 103 -103 103c-59 0 -102 -46 -102 -103zM25 552c0 89 72 160 160 160s161 -71 161 -160c0 -86 -73 -157 -161 -157s-160 71 -160 157zM395 145c0 -56 43 -102 102 -102
c60 0 103 46 103 102c0 57 -43 103 -103 103c-59 0 -102 -46 -102 -103zM337 144c0 89 72 160 160 160s161 -71 161 -160c0 -86 -73 -157 -161 -157s-160 71 -160 157zM769 145c0 -56 43 -102 102 -102c60 0 103 46 103 102c0 57 -43 103 -103 103c-59 0 -102 -46 -102 -103
zM711 144c0 89 72 160 160 160s161 -71 161 -160c0 -86 -73 -157 -161 -157s-160 71 -160 157z" />
    <glyph glyph-name="Acircumflex" unicode="&#xc2;" horiz-adv-x="622" 
d="M427 175h-232l-72 -175h-108l296 713l296 -713h-108zM393 265l-82 209l-82 -209h164zM411 745l-99 60l-100 -60v78l100 60l99 -60v-78z" />
    <glyph glyph-name="Ecircumflex" unicode="&#xca;" horiz-adv-x="539" 
d="M77 0v700h408v-98h-306v-169h292v-96h-292v-237h312v-100h-414zM392 745l-99 60l-100 -60v78l100 60l99 -60v-78z" />
    <glyph glyph-name="Aacute" unicode="&#xc1;" horiz-adv-x="622" 
d="M427 175h-232l-72 -175h-108l296 713l296 -713h-108zM393 265l-82 209l-82 -209h164zM257 750l95 130h98l-123 -130h-70z" />
    <glyph glyph-name="Edieresis" unicode="&#xcb;" horiz-adv-x="539" 
d="M77 0v700h408v-98h-306v-169h292v-96h-292v-237h312v-100h-414zM146 799c0 26 21 49 48 49c26 0 48 -23 48 -49c0 -27 -22 -49 -48 -49c-27 0 -48 22 -48 49zM333 799c0 26 21 49 48 49c26 0 48 -23 48 -49c0 -27 -22 -49 -48 -49c-27 0 -48 22 -48 49z" />
    <glyph glyph-name="Egrave" unicode="&#xc8;" horiz-adv-x="539" 
d="M77 0v700h408v-98h-306v-169h292v-96h-292v-237h312v-100h-414zM286 880l95 -130h-70l-123 130h98z" />
    <glyph glyph-name="Iacute" unicode="&#xcd;" horiz-adv-x="252" 
d="M75 0v700h102v-700h-102zM62 750l95 130h98l-123 -130h-70z" />
    <glyph glyph-name="Icircumflex" unicode="&#xce;" horiz-adv-x="252" 
d="M75 0v700h102v-700h-102zM226 745l-99 60l-100 -60v78l100 60l99 -60v-78z" />
    <glyph glyph-name="Idieresis" unicode="&#xcf;" horiz-adv-x="252" 
d="M75 0v700h102v-700h-102zM-15 799c0 26 21 49 48 49c26 0 48 -23 48 -49c0 -27 -22 -49 -48 -49c-27 0 -48 22 -48 49zM172 799c0 26 21 49 48 49c26 0 48 -23 48 -49c0 -27 -22 -49 -48 -49c-27 0 -48 22 -48 49z" />
    <glyph glyph-name="Igrave" unicode="&#xcc;" horiz-adv-x="252" 
d="M75 0v700h102v-700h-102zM89 881l95 -130h-70l-123 130h98z" />
    <glyph glyph-name="Oacute" unicode="&#xd3;" horiz-adv-x="782" 
d="M32 349c0 201 160 363 359 363s359 -162 359 -363c0 -200 -160 -362 -359 -362s-359 162 -359 362zM142 349c0 -144 112 -262 249 -262s249 118 249 262c0 145 -112 263 -249 263s-249 -118 -249 -263zM321 750l95 130h98l-123 -130h-70z" />
    <glyph glyph-name="Ocircumflex" unicode="&#xd4;" horiz-adv-x="782" 
d="M32 349c0 201 160 363 359 363s359 -162 359 -363c0 -200 -160 -362 -359 -362s-359 162 -359 362zM142 349c0 -144 112 -262 249 -262s249 118 249 262c0 145 -112 263 -249 263s-249 -118 -249 -263zM490 730l-99 60l-100 -60v78l100 60l99 -60v-78z" />
    <glyph glyph-name="Ograve" unicode="&#xd2;" horiz-adv-x="782" 
d="M32 349c0 201 160 363 359 363s359 -162 359 -363c0 -200 -160 -362 -359 -362s-359 162 -359 362zM142 349c0 -144 112 -262 249 -262s249 118 249 262c0 145 -112 263 -249 263s-249 -118 -249 -263zM357 880l95 -130h-70l-123 130h98z" />
    <glyph glyph-name="Uacute" unicode="&#xda;" horiz-adv-x="621" 
d="M75 700h102v-477c0 -75 62 -138 138 -138s139 63 139 138v477h102v-477c0 -132 -108 -236 -242 -236c-133 0 -239 104 -239 236v477zM247 750l95 130h98l-123 -130h-70z" />
    <glyph glyph-name="Ucircumflex" unicode="&#xdb;" horiz-adv-x="621" 
d="M75 700h102v-477c0 -75 62 -138 138 -138s139 63 139 138v477h102v-477c0 -132 -108 -236 -242 -236c-133 0 -239 104 -239 236v477zM419 745l-99 60l-100 -60v78l100 60l99 -60v-78z" />
    <glyph glyph-name="Ugrave" unicode="&#xd9;" horiz-adv-x="621" 
d="M75 700h102v-477c0 -75 62 -138 138 -138s139 63 139 138v477h102v-477c0 -132 -108 -236 -242 -236c-133 0 -239 104 -239 236v477zM306 880l95 -130h-70l-123 130h98z" />
    <glyph glyph-name="dotlessi" unicode="&#x131;" horiz-adv-x="216" 
d="M60 0v470h96v-470h-96z" />
    <glyph glyph-name="circumflex" unicode="&#x2c6;" horiz-adv-x="362" 
d="M280 514l-99 60l-100 -60v78l100 60l99 -60v-78z" />
    <glyph glyph-name="tilde" unicode="&#x2dc;" horiz-adv-x="359" 
d="M224 545c-32 0 -61 20 -93 20c-21 0 -36 -10 -46 -31l-50 30c19 53 59 67 96 67c36 0 63 -20 93 -20c21 0 36 10 46 31l50 -30c-19 -53 -59 -67 -96 -67z" />
    <glyph glyph-name="macron" unicode="&#xaf;" horiz-adv-x="399" 
d="M75 543v73h249v-73h-249z" />
    <glyph glyph-name="breve" unicode="&#x2d8;" horiz-adv-x="383" 
d="M192 527c-87 0 -139 42 -139 126h63c0 -42 26 -61 76 -61s76 19 76 61h63c0 -84 -52 -126 -139 -126z" />
    <glyph glyph-name="dotaccent" unicode="&#x2d9;" horiz-adv-x="214" 
d="M54 590c0 29 24 55 54 55c29 0 55 -26 55 -55c0 -31 -24 -54 -55 -54c-32 0 -54 23 -54 54z" />
    <glyph glyph-name="ring" unicode="&#x2da;" horiz-adv-x="300" 
d="M53 620c0 54 43 97 97 97s98 -43 98 -97c0 -55 -44 -98 -98 -98s-97 43 -97 98zM103 619c0 -25 21 -46 47 -46s47 21 47 46c0 28 -21 47 -47 47c-27 0 -47 -19 -47 -47z" />
    <glyph glyph-name="hungarumlaut" unicode="&#x2dd;" horiz-adv-x="381" 
d="M18 527l95 130h98l-123 -130h-70zM170 527l95 130h98l-123 -130h-70z" />
    <glyph glyph-name="caron" unicode="&#x2c7;" horiz-adv-x="362" 
d="M181 617l99 60v-78l-99 -60l-100 60v78z" />
    <glyph glyph-name="space" unicode=" " horiz-adv-x="251" 
 />
    <glyph glyph-name="S.salt" horiz-adv-x="593" 
d="M29 100c107 0 157 67 176 131l73 248c34 117 116 221 286 221v-100c-107 0 -158 -69 -176 -131l-73 -248c-34 -115 -116 -221 -286 -221v100z" />
    <glyph glyph-name="T_T" horiz-adv-x="928" 
d="M626 0v602h-324v-602h-102v602h-173v98h874v-98h-173v-602h-102z" />
    <glyph glyph-name="I.salt" horiz-adv-x="252" 
d="M75 0v542h102v-542h-102zM61 648c0 35 29 64 64 64s64 -29 64 -64s-29 -64 -64 -64s-64 29 -64 64z" />
    <glyph glyph-name="hyphen.caps" horiz-adv-x="371" 
d="M52 309v88h266v-88h-266z" />
    <glyph glyph-name="endash.caps" horiz-adv-x="640" 
d="M75 319v70h490v-70h-490z" />
    <glyph glyph-name="emdash.caps" horiz-adv-x="1131" 
d="M75 389h980v-70h-980v70z" />
    <glyph glyph-name="guillemotleft.caps" horiz-adv-x="506" 
d="M195 144l-152 207l152 207h86l-151 -207l151 -207h-86zM376 144l-152 207l152 207h86l-151 -207l151 -207h-86z" />
    <glyph glyph-name="guillemotright.caps" horiz-adv-x="506" 
d="M463 351l-152 -207h-86l151 207l-151 207h86zM282 351l-152 -207h-86l151 207l-151 207h86z" />
    <glyph glyph-name="guilsinglleft.caps" horiz-adv-x="325" 
d="M195 144l-152 207l152 207h86l-151 -207l151 -207h-86z" />
    <glyph glyph-name="guilsinglright.caps" horiz-adv-x="325" 
d="M282 351l-152 -207h-86l151 207l-151 207h86z" />
    <glyph glyph-name="parenleft.caps" horiz-adv-x="295" 
d="M55 355c0 134 21 292 74 421h111c-59 -125 -81 -283 -81 -421s22 -296 81 -421h-111c-53 129 -74 287 -74 421z" />
    <glyph glyph-name="parenright.caps" horiz-adv-x="295" 
d="M240 355c0 -134 -21 -292 -74 -421h-111c59 125 81 283 81 421s-22 296 -81 421h111c53 -129 74 -287 74 -421z" />
    <glyph glyph-name="bracketleft.caps" horiz-adv-x="299" 
d="M155 692v-675h90v-84h-190v843h190v-84h-90z" />
    <glyph glyph-name="bracketright.caps" horiz-adv-x="299" 
d="M144 17v675h-90v84h190v-843h-190v84h90z" />
    <glyph glyph-name="braceleft.caps" horiz-adv-x="295" 
d="M124 355c36 -10 76 -41 76 -141v-166c0 -17 14 -31 31 -31h40v-84h-88c-47 0 -85 38 -85 86v195c0 75 -15 104 -75 104v74c60 0 75 29 75 104v195c0 48 38 86 85 86h88v-84h-40c-17 0 -31 -14 -31 -31v-166c0 -100 -40 -131 -76 -141z" />
    <glyph glyph-name="bar.caps" horiz-adv-x="296" 
d="M97 -124v948h101v-948h-101z" />
    <glyph glyph-name="braceright.caps" horiz-adv-x="295" 
d="M171 355c-36 10 -76 41 -76 141v166c0 17 -14 31 -31 31h-40v84h88c47 0 85 -38 85 -86v-195c0 -75 15 -104 75 -104v-74c-60 0 -75 -29 -75 -104v-195c0 -48 -38 -86 -85 -86h-88v84h40c17 0 31 14 31 31v166c0 100 40 131 76 141z" />
    <glyph glyph-name="slash.caps" horiz-adv-x="534" 
d="M414 808l83 -37l-378 -870l-82 37z" />
    <glyph glyph-name="backslash.caps" horiz-adv-x="534" 
d="M37 771l83 37l377 -870l-82 -37z" />
    <glyph glyph-name="exclamdown.caps" horiz-adv-x="312" 
d="M116 0v522h90v-522h-90zM95 645c0 37 29 67 66 67c36 0 66 -30 66 -67c0 -36 -30 -67 -66 -67c-37 0 -66 31 -66 67z" />
    <glyph glyph-name="questiondown.caps" horiz-adv-x="565" 
d="M225 525h97c0 -160 -157 -205 -157 -324c0 -65 47 -119 120 -119c71 0 114 57 114 122h98c0 -118 -82 -217 -212 -217s-220 94 -220 214c0 156 160 189 160 324zM343 645c0 -36 -29 -67 -66 -67c-36 0 -66 31 -66 67c0 37 30 67 66 67c37 0 66 -30 66 -67z" />
    <glyph glyph-name="periodcentered.caps" horiz-adv-x="230" 
d="M49 345c0 36 29 67 66 67c36 0 66 -31 66 -67c0 -37 -30 -67 -66 -67c-37 0 -66 30 -66 67z" />
    <glyph glyph-name="bullet.caps" horiz-adv-x="387" 
d="M50 365c0 79 64 143 143 143s143 -64 143 -143s-64 -143 -143 -143s-143 64 -143 143z" />
    <glyph glyph-name="O.salt" horiz-adv-x="574" 
d="M32 455c0 142 114 257 255 257c142 0 255 -115 255 -257c0 -143 -113 -257 -255 -257c-141 0 -255 114 -255 257zM137 455c0 -87 67 -158 150 -158s150 71 150 158s-67 158 -150 158s-150 -71 -150 -158zM48 0v100h478v-100h-478z" />
    <glyph glyph-name="Odieresis.salt" horiz-adv-x="574" 
d="M32 455c0 142 114 257 255 257c142 0 255 -115 255 -257c0 -143 -113 -257 -255 -257c-141 0 -255 114 -255 257zM137 455c0 -87 67 -158 150 -158s150 71 150 158s-67 158 -150 158s-150 -71 -150 -158zM48 0v100h478v-100h-478zM146 799c0 26 21 49 48 49
c26 0 48 -23 48 -49c0 -27 -22 -49 -48 -49c-27 0 -48 22 -48 49zM333 799c0 26 21 49 48 49c26 0 48 -23 48 -49c0 -27 -22 -49 -48 -49c-27 0 -48 22 -48 49z" />
    <glyph glyph-name="Otilde.salt" horiz-adv-x="574" 
d="M32 455c0 142 114 257 255 257c142 0 255 -115 255 -257c0 -143 -113 -257 -255 -257c-141 0 -255 114 -255 257zM137 455c0 -87 67 -158 150 -158s150 71 150 158s-67 158 -150 158s-150 -71 -150 -158zM48 0v100h478v-100h-478zM334 759c-32 0 -61 20 -93 20
c-21 0 -36 -10 -46 -31l-50 30c19 53 59 67 96 67c36 0 63 -20 93 -20c21 0 36 10 46 31l50 -30c-19 -53 -59 -67 -96 -67z" />
    <glyph glyph-name="Oacute.salt" horiz-adv-x="574" 
d="M32 455c0 142 114 257 255 257c142 0 255 -115 255 -257c0 -143 -113 -257 -255 -257c-141 0 -255 114 -255 257zM137 455c0 -87 67 -158 150 -158s150 71 150 158s-67 158 -150 158s-150 -71 -150 -158zM48 0v100h478v-100h-478zM216 750l95 130h98l-123 -130h-70z" />
    <glyph glyph-name="Ocircumflex.salt" horiz-adv-x="574" 
d="M32 455c0 142 114 257 255 257c142 0 255 -115 255 -257c0 -143 -113 -257 -255 -257c-141 0 -255 114 -255 257zM137 455c0 -87 67 -158 150 -158s150 71 150 158s-67 158 -150 158s-150 -71 -150 -158zM48 0v100h478v-100h-478zM387 730l-99 60l-100 -60v78l100 60
l99 -60v-78z" />
    <glyph glyph-name="Ograve.salt" horiz-adv-x="574" 
d="M32 455c0 142 114 257 255 257c142 0 255 -115 255 -257c0 -143 -113 -257 -255 -257c-141 0 -255 114 -255 257zM137 455c0 -87 67 -158 150 -158s150 71 150 158s-67 158 -150 158s-150 -71 -150 -158zM48 0v100h478v-100h-478zM262 880l95 -130h-70l-123 130h98z" />
    <glyph glyph-name="L_L" horiz-adv-x="647" 
d="M330 218v482h98v-386h184v-96h-282zM75 0v700h102v-600h296v-100h-398z" />
    <glyph glyph-name="T_H" horiz-adv-x="1063" 
d="M511 0v602h-214v-602h-102v602h-173v98h591v-301h273v301h102v-700h-102v309h-273v-309h-102z" />
    <glyph glyph-name="T_H_E" horiz-adv-x="1338" 
d="M511 0v602h-214v-602h-102v602h-173v98h591v-301h273v301h408v-98h-306v-169h292v-96h-292v-237h312v-100h-414v309h-273v-309h-102z" />
    <glyph glyph-name="D_E" horiz-adv-x="690" 
d="M75 0v700h245c188 0 339 -157 339 -350s-146 -350 -339 -350h-245zM177 90h131c143 0 245 117 245 260s-103 260 -245 260h-131v-177h227v-96h-227v-247z" />
    <glyph glyph-name="T_E" horiz-adv-x="963" 
d="M511 0v602h-214v-602h-102v602h-173v98h897v-98h-306v-169h292v-96h-292v-237h312v-100h-414z" />
    <glyph glyph-name="H_E" horiz-adv-x="902" 
d="M450 0v309h-273v-309h-102v700h102v-301h273v301h408v-98h-306v-169h292v-96h-292v-237h312v-100h-414z" />
    <glyph glyph-name="T_R" horiz-adv-x="1060" 
d="M884 250c87 -50 117 -137 117 -221v-29h-104v29c0 77 -57 176 -159 176h-124v-205h-103v602h-214v-602h-102v602h-173v98h716c149 0 263 -104 263 -248c0 -100 -61 -173 -117 -202zM895 452c0 81 -62 158 -145 158h-136v-315h136c83 0 145 79 145 157z" />
    <glyph glyph-name="T_Y" horiz-adv-x="980" 
d="M747 295v-295h-102v295l-164 307h-184v-602h-102v602h-173v98h520l154 -294l154 294h113z" />
    <glyph glyph-name="A.salt" horiz-adv-x="850" 
d="M129 0h-119l415 713l415 -713h-119l-55 96h-481zM615 186l-190 335l-191 -335h381z" />
    <glyph glyph-name="T_W" horiz-adv-x="1225" 
d="M1207 700l-288 -712l-95 234l-95 -234l-249 614h-183v-602h-102v602h-173v98h526l181 -445l41 99l-139 346h107l181 -445l181 445h107z" />
    <glyph glyph-name="ampersand.salt" horiz-adv-x="427" 
d="M340 140h-94l-36 63h-31c-31 0 -58 -26 -58 -59c0 -31 27 -58 58 -58h221v-86h-235c-79 0 -144 65 -144 144c0 80 65 145 144 145h4l-98 181h287v-86h-144z" />
    <glyph glyph-name="V.salt" horiz-adv-x="864" 
d="M136 700l296 -521l296 521h119l-415 -713l-415 713h119z" />
    <glyph glyph-name="L_A" horiz-adv-x="744" 
d="M75 0v700h102v-600h296v-100h-398zM491 711l231 -493h-114l-38 87h-158l-38 -87h-114zM491 510l-51 -124h102z" />
    <glyph glyph-name="O_F" horiz-adv-x="910" 
d="M32 456c0 142 113 256 253 256s252 -114 252 -256c0 -141 -112 -255 -252 -255s-253 114 -253 255zM136 456c0 -86 67 -157 149 -157s148 71 148 157c0 87 -66 158 -148 158s-149 -71 -149 -158zM48 0v100h819v-100h-819zM608 212v488h272v-89h-177v-127h168v-87h-168
v-185h-95z" />
    <glyph glyph-name="A_N_D" horiz-adv-x="1509" 
d="M330 312h-160l-49 -120h-103l232 519l232 -519h-103zM301 392l-51 129l-51 -129h102zM531 192v508h70l253 -285v285h90v-516l-323 355v-347h-90zM1125 282h83c91 0 164 74 164 164c0 91 -73 164 -164 164h-83v-328zM1029 192v508h194c140 0 254 -114 254 -254
s-114 -254 -254 -254h-194zM18 0v100h1443v-100h-1443z" />
    <glyph glyph-name="C_O" horiz-adv-x="631" 
d="M416 157c-105 0 -193 86 -193 192c0 107 88 192 193 192c107 0 194 -85 194 -192c0 -106 -87 -192 -194 -192zM416 237c61 0 108 51 108 112s-47 112 -108 112c-60 0 -107 -51 -107 -112s47 -112 107 -112zM515 122v-113c-39 -14 -80 -22 -124 -22
c-199 0 -359 162 -359 362c0 201 160 363 359 363c44 0 85 -8 124 -22v-114c-37 23 -79 36 -124 36c-137 0 -249 -118 -249 -263c0 -144 112 -262 249 -262c45 0 87 12 124 35z" />
    <glyph glyph-name="L_E" horiz-adv-x="651" 
d="M75 0v700h102v-600h296v-100h-398zM325 218v482h282v-92h-184v-93h174v-90h-174v-113h188v-94h-286z" />
    <glyph glyph-name="L_I" horiz-adv-x="497" 
d="M330 218v482h98v-482h-98zM75 0v700h102v-600h296v-100h-398z" />
    <glyph glyph-name="L_O" horiz-adv-x="809" 
d="M284 459c0 140 112 253 250 253c139 0 250 -113 250 -253s-111 -253 -250 -253c-138 0 -250 113 -250 253zM386 459c0 -87 66 -157 148 -157c83 0 148 70 148 157s-65 157 -148 157c-82 0 -148 -70 -148 -157zM75 0v700h102v-600h296v-100h-398z" />
    <glyph glyph-name="O_O" horiz-adv-x="1390" 
d="M32 349c0 201 160 363 359 363c128 0 240 -68 304 -169c63 101 175 169 304 169c199 0 359 -162 359 -363c0 -200 -160 -362 -359 -362c-129 0 -241 67 -304 169c-64 -102 -176 -169 -304 -169c-199 0 -359 162 -359 362zM750 349c0 -144 112 -262 249 -262
s249 118 249 262c0 145 -112 263 -249 263s-249 -118 -249 -263zM142 349c0 -144 112 -262 249 -262s249 118 249 262c0 145 -112 263 -249 263s-249 -118 -249 -263z" />
    <glyph glyph-name="Adieresis.salt" horiz-adv-x="850" 
d="M129 0h-119l415 713l415 -713h-119l-55 96h-481zM615 186l-190 335l-191 -335h381zM284 799c0 26 21 49 48 49c26 0 48 -23 48 -49c0 -27 -22 -49 -48 -49c-27 0 -48 22 -48 49zM471 799c0 26 21 49 48 49c26 0 48 -23 48 -49c0 -27 -22 -49 -48 -49c-27 0 -48 22 -48 49
z" />
    <glyph glyph-name="Aring.salt" horiz-adv-x="850" 
d="M129 0h-119l415 713l415 -713h-119l-55 96h-481zM615 186l-190 335l-191 -335h381zM328 848c0 54 43 97 97 97s98 -43 98 -97c0 -55 -44 -98 -98 -98s-97 43 -97 98zM378 847c0 -25 21 -46 47 -46s47 21 47 46c0 28 -21 47 -47 47c-27 0 -47 -19 -47 -47z" />
    <glyph glyph-name="Agrave.salt" horiz-adv-x="850" 
d="M129 0h-119l415 713l415 -713h-119l-55 96h-481zM615 186l-190 335l-191 -335h381zM384 880l95 -130h-70l-123 130h98z" />
    <glyph glyph-name="Atilde.salt" horiz-adv-x="850" 
d="M129 0h-119l415 713l415 -713h-119l-55 96h-481zM615 186l-190 335l-191 -335h381zM472 759c-32 0 -61 20 -93 20c-21 0 -36 -10 -46 -31l-50 30c19 53 59 67 96 67c36 0 63 -20 93 -20c21 0 36 10 46 31l50 -30c-19 -53 -59 -67 -96 -67z" />
    <glyph glyph-name="Acircumflex.salt" horiz-adv-x="850" 
d="M129 0h-119l415 713l415 -713h-119l-55 96h-481zM615 186l-190 335l-191 -335h381zM525 745l-99 60l-100 -60v78l100 60l99 -60v-78z" />
    <glyph glyph-name="Aacute.salt" horiz-adv-x="850" 
d="M129 0h-119l415 713l415 -713h-119l-55 96h-481zM615 186l-190 335l-191 -335h381zM371 750l95 130h98l-123 -130h-70z" />
    <glyph glyph-name="N_o" horiz-adv-x="1038" 
d="M717 324v54h272v-54h-272zM717 226v54h272v-54h-272zM853 428c-80 0 -142 64 -142 142c0 79 62 143 142 143s142 -64 142 -143c0 -78 -62 -142 -142 -142zM853 651c-43 0 -76 -37 -76 -81c0 -43 33 -81 76 -81c42 0 76 38 76 81c0 44 -34 81 -76 81zM70 0v700h94
l358 -441v441h96v-712l-452 540v-528h-96z" />
    <glyph glyph-name="arrow.right" horiz-adv-x="822" 
d="M587 299h-559v86h558l-240 147l47 81l399 -271l-398 -271l-49 80z" />
    <glyph glyph-name="arrow.left" horiz-adv-x="821" 
d="M792 299h-559l242 -148l-49 -80l-398 271l399 271l47 -81l-240 -147h558v-86z" />
    <glyph glyph-name="arrow.up" horiz-adv-x="603" 
d="M344 559v-559h-86v558l-147 -240l-81 47l271 399l271 -398l-80 -49z" />
    <glyph glyph-name="arrow.down" horiz-adv-x="603" 
d="M344 700v-559l148 242l80 -49l-271 -398l-271 399l81 47l147 -240v558h86z" />
    <glyph glyph-name="ornamentA" horiz-adv-x="466" 
d="M378 352l-145 -144l-145 144l145 145z" />
    <glyph glyph-name="E.salt" horiz-adv-x="537" 
d="M75 0v700h408v-98h-306v-255h292v-96h-292v-151h312v-100h-414z" />
    <glyph glyph-name="Edieresis.salt" horiz-adv-x="537" 
d="M75 0v700h408v-98h-306v-255h292v-96h-292v-151h312v-100h-414zM146 799c0 26 21 49 48 49c26 0 48 -23 48 -49c0 -27 -22 -49 -48 -49c-27 0 -48 22 -48 49zM333 799c0 26 21 49 48 49c26 0 48 -23 48 -49c0 -27 -22 -49 -48 -49c-27 0 -48 22 -48 49z" />
    <glyph glyph-name="Egrave.salt" horiz-adv-x="537" 
d="M75 0v700h408v-98h-306v-255h292v-96h-292v-151h312v-100h-414zM286 880l95 -130h-70l-123 130h98z" />
    <glyph glyph-name="Eacute.salt" horiz-adv-x="537" 
d="M75 0v700h408v-98h-306v-255h292v-96h-292v-151h312v-100h-414zM221 750l95 130h98l-123 -130h-70z" />
    <glyph glyph-name="Ecircumflex.salt" horiz-adv-x="537" 
d="M75 0v700h408v-98h-306v-255h292v-96h-292v-151h312v-100h-414zM392 745l-99 60l-100 -60v78l100 60l99 -60v-78z" />
    <glyph glyph-name="F.salt" horiz-adv-x="537" 
d="M75 0v700h408v-98h-306v-255h292v-96h-292v-251h-102z" />
    <glyph glyph-name="N_N" horiz-adv-x="1140" 
d="M70 0v700h94l358 -441v441h94l358 -441v441h96v-712l-452 540v-540l-452 540v-528h-96z" />
    <glyph glyph-name="L_M" horiz-adv-x="1049" 
d="M75 0v700h102v-600h286v-100h-388zM400 713l234 -491l234 491l132 -713h-106l-69 395l-191 -408l-191 408l-36 -211h-106z" />
    <glyph glyph-name="D_O" horiz-adv-x="1303" 
d="M75 0v700h245c120 0 225 -65 285 -161c63 104 177 173 307 173c199 0 359 -162 359 -363c0 -200 -160 -362 -359 -362c-130 0 -244 69 -307 173c-59 -96 -162 -160 -285 -160h-245zM663 349c0 -144 112 -262 249 -262s249 118 249 262c0 145 -112 263 -249 263
s-249 -118 -249 -263zM177 90h131c143 0 245 117 245 260s-103 260 -245 260h-131v-520z" />
    <glyph glyph-name="N_T" horiz-adv-x="818" 
d="M70 0v700h94l358 -441v343h-167v98h436v-98h-173v-614l-452 540v-528h-96z" />
    <glyph glyph-name="N_K" horiz-adv-x="1007" 
d="M70 0v700h94l358 -441v441h96v-318l233 318h117l-239 -323l260 -377h-129l-194 293l-48 -65v-240l-452 540v-528h-96z" />
    <glyph glyph-name="o_f" horiz-adv-x="390" 
d="M87 0v321h216v-64h-146v-80h136v-64h-136v-113h-70zM28 542c0 94 75 170 168 170c92 0 166 -76 166 -170c0 -93 -74 -169 -166 -169c-93 0 -168 76 -168 169zM102 542c0 -54 42 -97 94 -97c51 0 91 43 91 97c0 55 -40 99 -91 99c-52 0 -94 -44 -94 -99z" />
    <glyph glyph-name="b_y" horiz-adv-x="346" 
d="M108 321l65 -128l65 128h75l-105 -186v-135h-70v135l-105 186h75zM273 550c25 -14 45 -42 45 -76c0 -52 -49 -95 -96 -95h-162v321h160c47 0 87 -37 87 -86c0 -29 -17 -50 -34 -64zM130 640v-63h71c18 0 32 15 32 32s-14 31 -32 31h-71zM130 441h74c21 0 38 17 38 38
c0 22 -17 39 -38 39h-74v-77z" />
    <glyph glyph-name="o_n" horiz-adv-x="390" 
d="M55 0v321h57l155 -162v162h67v-333l-213 230v-218h-66zM28 542c0 94 75 170 168 170c92 0 166 -76 166 -170c0 -93 -74 -169 -166 -169c-93 0 -168 76 -168 169zM102 542c0 -54 42 -97 94 -97c51 0 91 43 91 97c0 55 -40 99 -91 99c-52 0 -94 -44 -94 -99z" />
    <glyph glyph-name="a_t" horiz-adv-x="311" 
d="M209 440h-106l-24 -57h-70l147 330l146 -330h-70zM189 496l-33 79l-34 -79h67zM121 0v257h-85v64h239v-64h-84v-257h-70z" />
    <glyph glyph-name="i_n" horiz-adv-x="389" 
d="M159 380v321h70v-321h-70zM55 0v321h57l155 -162v162h67v-333l-213 230v-218h-66z" />
    <glyph glyph-name="t_o" horiz-adv-x="390" 
d="M160 379v257h-85v64h239v-64h-84v-257h-70zM28 156c0 94 75 170 168 170c92 0 166 -76 166 -170c0 -93 -74 -169 -166 -169c-93 0 -168 76 -168 169zM102 156c0 -54 42 -97 94 -97c51 0 91 43 91 97c0 55 -40 99 -91 99c-52 0 -94 -44 -94 -99z" />
    <glyph glyph-name="d_e" 
d="M56 0v321h238v-62h-168v-61h162v-60h-162v-76h171v-62h-241zM126 443h50c54 0 98 44 98 97c0 54 -44 98 -98 98h-50v-195zM56 379v321h137c85 0 155 -71 155 -160c0 -88 -68 -161 -155 -161h-137z" />
    <glyph glyph-name="e_n" horiz-adv-x="379" 
d="M55 0v321h57l145 -159v159h67v-333l-203 230v-218h-66zM82 379v321h216v-62h-146v-61h140v-60h-140v-76h149v-62h-219z" />
    <glyph glyph-name="d_a" horiz-adv-x="390" 
d="M249 57h-106l-24 -57h-70l147 330l146 -330h-70zM229 113l-33 79l-34 -79h67zM127 443h63c54 0 98 44 98 97c0 54 -44 98 -98 98h-63v-195zM57 379v321h150c85 0 155 -71 155 -160c0 -88 -68 -161 -155 -161h-150z" />
    <glyph glyph-name="d_o" horiz-adv-x="390" 
d="M28 155c0 94 75 170 168 170c92 0 166 -76 166 -170c0 -93 -74 -169 -166 -169c-93 0 -168 76 -168 169zM102 155c0 -54 42 -97 94 -97c51 0 91 43 91 97c0 55 -40 99 -91 99c-52 0 -94 -44 -94 -99zM127 443h63c54 0 98 44 98 97c0 54 -44 98 -98 98h-63v-195zM57 379
v321h150c85 0 155 -71 155 -160c0 -88 -68 -161 -155 -161h-150z" />
    <glyph glyph-name="e_m" horiz-adv-x="382" 
d="M82 379v321h216v-62h-146v-61h140v-60h-140v-76h149v-62h-219zM274 154l-82 -162l-84 162l-30 -154h-61l65 330l110 -213l110 213l63 -330h-61z" />
    <glyph glyph-name="n_o" horiz-adv-x="390" 
d="M55 379v321h57l155 -162v162h67v-333l-213 230v-218h-66zM28 155c0 94 75 170 168 170c92 0 166 -76 166 -170c0 -93 -74 -169 -166 -169c-93 0 -168 76 -168 169zM102 155c0 -54 42 -97 94 -97c51 0 91 43 91 97c0 55 -40 99 -91 99c-52 0 -94 -44 -94 -99z" />
    <glyph glyph-name="a_u" horiz-adv-x="311" 
d="M155 -14c-68 0 -123 55 -123 123v211h70v-211c0 -29 24 -53 53 -53s53 24 53 53v211h70v-211c0 -68 -55 -123 -123 -123zM209 440h-106l-24 -57h-70l147 330l146 -330h-70zM189 496l-33 79l-34 -79h67z" />
    <glyph glyph-name="d_u" 
d="M187 -14c-68 0 -123 55 -123 123v211h70v-211c0 -29 24 -53 53 -53s53 24 53 53v211h70v-211c0 -68 -55 -123 -123 -123zM126 443h50c54 0 98 44 98 97c0 54 -44 98 -98 98h-50v-195zM56 379v321h137c85 0 155 -71 155 -160c0 -88 -68 -161 -155 -161h-137z" />
    <glyph glyph-name="L_U" horiz-adv-x="679" 
d="M466 206c-94 0 -171 79 -171 173v321h98v-325c0 -40 33 -73 73 -73c41 0 74 33 74 73v325h98v-321c0 -94 -77 -173 -172 -173zM75 0v700h102v-600h296v-100h-398z" />
    <glyph glyph-name="Eth" unicode="&#xd0;" horiz-adv-x="690" 
d="M22 330v88h53v282h245c188 0 339 -157 339 -350s-146 -350 -339 -350h-245v330h-53zM177 90h131c143 0 245 117 245 260s-103 260 -245 260h-131v-192h132v-88h-132v-240z" />
    <glyph glyph-name="multiply" unicode="&#xd7;" horiz-adv-x="543" 
d="M410 56l-143 150l-143 -150l-60 56l147 152l-150 156l55 59l150 -155l152 155l55 -59l-153 -153l150 -155z" />
    <glyph glyph-name="Yacute" unicode="&#xdd;" horiz-adv-x="568" 
d="M335 295v-295h-102v295l-216 405h113l154 -304l154 304h113zM234 751l95 130h98l-123 -130h-70z" />
    <glyph glyph-name="Thorn" unicode="&#xde;" horiz-adv-x="585" 
d="M553 381c0 -129 -103 -232 -231 -232h-145v-149h-102v700h102v-86h145c128 0 231 -105 231 -233zM447 381c0 79 -61 143 -139 143h-131v-285h131c89 0 139 59 139 142z" />
    <glyph glyph-name="eth" unicode="&#xf0;" horiz-adv-x="523" 
d="M12 219v63h48v188h214c126 0 228 -104 228 -234s-99 -236 -228 -236h-214v219h-48zM156 90h92c86 0 146 65 146 146s-60 146 -146 146h-92v-100h109v-63h-109v-129z" />
    <glyph glyph-name="yacute" unicode="&#xfd;" horiz-adv-x="432" 
d="M121 470l95 -187l95 187h107l-154 -272v-198h-96v198l-154 272h107zM160 527l95 130h98l-123 -130h-70z" />
    <glyph glyph-name="thorn" unicode="&#xfe;" horiz-adv-x="441" 
d="M422 257c0 -87 -69 -162 -155 -162h-111v-95h-96v470h96v-57h111c86 0 155 -71 155 -156zM320 254c0 39 -32 71 -71 71h-93v-142h93c39 0 71 32 71 71z" />
    <glyph glyph-name="Lslash" unicode="&#x141;" horiz-adv-x="487" 
d="M23 261l-16 59l68 18v362h102v-335l192 52l16 -59l-208 -56v-202h286v-100h-388v275z" />
    <glyph glyph-name="lslash" unicode="&#x142;" 
d="M22 167l-16 59l54 14v230h96v-204l108 30l16 -59l-124 -34v-113h192v-90h-288v177z" />
    <glyph glyph-name="Obreve" unicode="&#x14e;" horiz-adv-x="782" 
d="M32 349c0 201 160 363 359 363s359 -162 359 -363c0 -200 -160 -362 -359 -362s-359 162 -359 362zM142 349c0 -144 112 -262 249 -262s249 118 249 262c0 145 -112 263 -249 263s-249 -118 -249 -263zM391 750c-87 0 -139 42 -139 126h63c0 -42 26 -61 76 -61
s76 19 76 61h63c0 -84 -52 -126 -139 -126z" />
    <glyph glyph-name="Scaron" unicode="&#x160;" horiz-adv-x="571" 
d="M241 401h103c110 0 198 -90 198 -198c0 -110 -89 -203 -198 -203h-271v100h253c60 0 108 43 108 102c0 60 -48 103 -108 103h-97c-108 0 -194 93 -194 200s86 195 194 195h223v-95h-211c-56 0 -102 -46 -102 -102s46 -102 102 -102zM289 829l99 60v-78l-99 -60l-100 60
v78z" />
    <glyph glyph-name="scaron" unicode="&#x161;" horiz-adv-x="393" 
d="M168 286h56c80 0 143 -63 143 -143c0 -75 -69 -143 -143 -143h-172v86h165c31 0 56 25 56 56s-25 56 -56 56h-55c-75 0 -136 61 -136 136c0 76 61 136 136 136h145v-86h-139c-27 0 -49 -22 -49 -49s22 -49 49 -49zM197 617l99 60v-78l-99 -60l-100 60v78z" />
    <glyph glyph-name="Zcaron" unicode="&#x17d;" horiz-adv-x="505" 
d="M470 0h-444l282 602h-244v98h407l-284 -600h283v-100zM273 829l99 60v-78l-99 -60l-100 60v78z" />
    <glyph glyph-name="zcaron" unicode="&#x17e;" horiz-adv-x="433" 
d="M394 0h-379l229 382h-196v88h362l-229 -380h213v-90zM217 617l99 60v-78l-99 -60l-100 60v78z" />
    <glyph glyph-name="minus" unicode="&#x2212;" horiz-adv-x="582" 
d="M35 302h512v-86h-512v86z" />
    </font>
</defs>
</svg>
